<svg width="56" height="38" viewBox="0 0 56 38" fill="none" xmlns="http://www.w3.org/2000/svg">
<rect x="0.435925" y="0.392957" width="54.228" height="36.9379" rx="4.32252" fill="#1F72CD" stroke="#D9D9D9" stroke-width="0.785913"/>
<path fill-rule="evenodd" clip-rule="evenodd" d="M9.90503 13.3604L4.75781 24.751H10.9198L11.6837 22.9348H13.4298L14.1937 24.751H20.9762V23.3648L21.5806 24.751H25.0891L25.6934 23.3355V24.751H39.7994L41.5146 22.982L43.1206 24.751L50.3657 24.7656L45.2022 19.0875L50.3657 13.3604H43.233L41.5633 15.0966L40.0078 13.3604H24.6625L23.3448 16.3004L21.9961 13.3604H15.8471V14.6993L15.163 13.3604H9.90503ZM30.9691 14.9779H39.0694L41.5469 17.654L44.1043 14.9779H46.5818L42.8175 19.0859L46.5818 23.1466H43.9919L41.5144 20.4393L38.944 23.1466H30.9691V14.9779ZM32.9697 18.1622V16.6701V16.6687H38.024L40.2294 19.0549L37.9263 21.4542H32.9697V19.8252H37.3887V18.1622H32.9697ZM11.0973 14.9779H14.1009L17.515 22.7019V14.9779H20.8054L23.4424 20.516L25.8727 14.9779H29.1467V23.1514H27.1545L27.1383 16.7467L24.234 23.1514H22.452L19.5314 16.7467V23.1514H15.4332L14.6563 21.319H10.4588L9.68344 23.1498H7.48767L11.0973 14.9779ZM11.1756 19.625L12.5585 16.3607L13.9398 19.625H11.1756Z" fill="white"/>
</svg>
