<svg width="65" height="66" viewBox="0 0 65 66" fill="none" xmlns="http://www.w3.org/2000/svg">
<defs>
  <linearGradient id="audienceGradient" x1="0%" y1="0%" x2="100%" y2="100%">
    <stop offset="0%" style="stop-color:var(--gradient-primary-start, #0060FB);stop-opacity:1" />
    <stop offset="100%" style="stop-color:var(--gradient-primary-end, #0060FB);stop-opacity:1" />
  </linearGradient>
</defs>
<path d="M40.4625 37.8115C38.8287 36.919 36.9548 36.4125 34.9629 36.4125H30.2289C28.1811 36.4125 26.259 36.9482 24.5947 37.8864C21.0946 39.8567 18.7307 43.6082 18.7307 47.9106V51.4577H46.4611V47.9106C46.4611 43.5523 44.0363 39.7615 40.4625 37.8115Z" fill="url(#audienceGradient)"/>
<path d="M53.5361 33.2615H49.6006C47.3027 33.2615 45.161 33.9407 43.3646 35.1112C44.2279 35.6774 45.0391 36.3388 45.7869 37.0866C48.6776 39.9773 50.2696 43.8214 50.2696 47.9106V49.5788H65V44.7253C65 38.4043 59.8571 33.2615 53.5361 33.2615Z" fill="url(#audienceGradient)"/>
<path d="M15.3994 33.2615H11.4639C5.14287 33.2615 0 38.4043 0 44.7253V49.5788H14.9221V47.9106C14.9221 43.8214 16.5153 39.9773 19.4061 37.0866C20.1259 36.3667 20.9041 35.7269 21.7318 35.1747C19.9164 33.9661 17.7392 33.2615 15.3994 33.2615Z" fill="url(#audienceGradient)"/>
<path d="M51.5624 16.0201C51.5422 16.0201 51.5212 16.0203 51.5009 16.0205C47.2406 16.0557 43.8048 19.738 43.8418 24.2287C43.8788 28.6981 47.3413 32.3095 51.5741 32.3095C51.5944 32.3095 51.6152 32.3094 51.6355 32.3091C53.7245 32.2919 55.6739 31.4118 57.1247 29.8309C58.5418 28.2866 59.3124 26.2518 59.2947 24.101C59.2578 19.6316 55.7953 16.0201 51.5624 16.0201Z" fill="url(#audienceGradient)"/>
<path d="M13.4258 16.0201C13.4056 16.0201 13.3846 16.0203 13.3643 16.0205C9.10404 16.0557 5.66818 19.738 5.70525 24.2287C5.74207 28.6981 9.20472 32.3095 13.4375 32.3095C13.4578 32.3095 13.4786 32.3094 13.4989 32.3091C15.5878 32.2919 17.5373 31.4118 18.9881 29.8309C20.4053 28.2866 21.1759 26.2518 21.1581 24.101C21.1212 19.6316 17.6587 16.0201 13.4258 16.0201Z" fill="url(#audienceGradient)"/>
<path d="M32.5965 14.7543C27.6847 14.7543 23.6895 18.9755 23.6895 24.1653C23.6895 27.9155 25.7766 31.1604 28.7892 32.6712C29.9444 33.2513 31.2355 33.5751 32.5965 33.5751C33.9574 33.5751 35.2485 33.2513 36.4038 32.6712C39.4164 31.1604 41.5035 27.9155 41.5035 24.1653C41.5035 18.9755 37.5083 14.7543 32.5965 14.7543Z" fill="url(#audienceGradient)"/>
</svg>
