<svg width="18" height="19" viewBox="0 0 18 19" fill="none" xmlns="http://www.w3.org/2000/svg">
<path d="M8.30696 16.5577C8.25922 16.5577 8.21199 16.5478 8.16824 16.5287C8.1245 16.5095 8.08519 16.4815 8.05278 16.4465L1.19939 9.03306C1.1537 8.98363 1.12341 8.92196 1.11223 8.85559C1.10105 8.78922 1.10946 8.72104 1.13643 8.65937C1.1634 8.59771 1.20777 8.54524 1.26409 8.5084C1.32042 8.47156 1.38626 8.45194 1.45357 8.45193H4.75241C4.80194 8.45194 4.8509 8.46257 4.89597 8.48311C4.94104 8.50364 4.98118 8.53361 5.01369 8.57098L7.30412 11.206C7.55166 10.6769 8.03084 9.79588 8.87171 8.72231C10.1148 7.1352 12.4271 4.80105 16.383 2.69394C16.4595 2.65322 16.5485 2.64266 16.6323 2.66432C16.7162 2.68599 16.7889 2.73832 16.8361 2.81098C16.8833 2.88364 16.9015 2.97134 16.8871 3.05678C16.8728 3.14221 16.8269 3.21916 16.7586 3.27243C16.7435 3.28424 15.2182 4.48539 13.4628 6.68551C11.8473 8.71016 9.69965 12.0208 8.64287 16.2947C8.62431 16.3698 8.58113 16.4365 8.52023 16.4842C8.45933 16.5319 8.38421 16.5578 8.30686 16.5578L8.30696 16.5577Z" fill="white"/>
</svg>
