<svg width="48" height="49" viewBox="0 0 48 49" fill="none" xmlns="http://www.w3.org/2000/svg">
<path fill-rule="evenodd" clip-rule="evenodd" d="M41.46 14.846L41.18 14.346C40.8188 13.7413 40.3094 13.2388 39.7 12.886L26.28 5.14596C25.6724 4.79346 24.9826 4.6072 24.28 4.60596H23.7C22.9974 4.6072 22.3076 4.79346 21.7 5.14596L8.28 12.906C7.67394 13.2565 7.17052 13.7599 6.82 14.366L6.54 14.866C6.1875 15.4736 6.00124 16.1634 6 16.866V32.366C6.00124 33.0686 6.1875 33.7584 6.54 34.3659L6.82 34.8659C7.17958 35.465 7.68098 35.9664 8.28 36.326L21.72 44.0659C22.3246 44.4258 23.0164 44.6125 23.72 44.6059H24.28C24.9826 44.6048 25.6724 44.4185 26.28 44.0659L39.7 36.306C40.312 35.9634 40.8174 35.458 41.16 34.846L41.46 34.346C41.8082 33.7366 41.9942 33.048 42 32.346V16.846C41.9988 16.1434 41.8126 15.4536 41.46 14.846ZM23.7 8.60596H24.28L36 15.366L24 22.286L12 15.366L23.7 8.60596ZM26 39.6059L37.7 32.846L38 32.346V18.826L26 25.766V39.6059Z" fill="#242424"/>
</svg>
