<svg width="65" height="66" viewBox="0 0 65 66" fill="none" xmlns="http://www.w3.org/2000/svg">
<defs>
  <linearGradient id="deviceGradient" x1="0%" y1="0%" x2="100%" y2="100%">
    <stop offset="0%" style="stop-color:var(--gradient-primary-start, #0060FB);stop-opacity:1" />
    <stop offset="100%" style="stop-color:var(--gradient-primary-end, #0060FB);stop-opacity:1" />
  </linearGradient>
</defs>
<path d="M56.875 29.0435H48.75C46.5156 29.0435 44.6875 30.8716 44.6875 33.106V49.356C44.6875 51.5903 46.5156 53.4185 48.75 53.4185H56.875C59.1094 53.4185 60.9375 51.5903 60.9375 49.356V33.106C60.9375 30.8716 59.1094 29.0435 56.875 29.0435ZM54.8438 35.1372C54.8438 36.2544 53.9297 37.1685 52.8125 37.1685C51.6953 37.1685 50.7812 36.2544 50.7812 35.1372V33.106H54.8438V35.1372Z" fill="url(#deviceGradient)"/>
<path d="M40.625 46.4919L39.7922 47.3247H25.2281L23.7859 45.8825C23.4 45.4966 22.8922 45.2935 22.3438 45.2935H8.125C5.89062 45.2935 4.0625 47.1216 4.0625 49.356C4.0625 51.5903 5.89062 53.4185 8.125 53.4185H41.7625C41.0719 52.22 40.625 50.8388 40.625 49.356V46.4919Z" fill="url(#deviceGradient)"/>
<path d="M56.875 24.981V16.856C56.875 14.6216 55.0468 12.7935 52.8125 12.7935H12.2078C11.1109 12.7935 10.0953 13.22 9.32339 13.9919C8.55151 14.7638 8.14526 15.7997 8.14526 16.8763L8.32808 41.2106H22.364C23.989 41.2106 25.5125 41.8403 26.6703 42.9981L26.914 43.2419H38.1265L38.3703 42.9981C39.0203 42.3481 39.8125 41.881 40.6453 41.5763V33.0856C40.6453 28.5966 44.2812 24.9606 48.7703 24.9606H56.8953L56.875 24.981Z" fill="url(#deviceGradient)"/>
</svg>
