<svg width="56" height="38" viewBox="0 0 56 38" fill="none" xmlns="http://www.w3.org/2000/svg">
<rect x="0.4203" y="0.392957" width="54.228" height="36.9379" rx="4.32252" fill="white" stroke="#D9D9D9" stroke-width="0.785913"/>
<path d="M23.1875 36.9379L54.2311 27.8999V33.0083C54.2311 35.1786 52.4718 36.9379 50.3015 36.9379H23.1875Z" fill="#FD6020"/>
<path d="M23.4893 15.106C24.087 15.106 24.7699 15.191 25.2822 15.5288V17.2173C24.8553 16.7107 24.1723 16.3726 23.4893 16.3726C22.123 16.457 21.0124 17.6396 21.0977 18.9907V19.1597C21.0977 20.5108 22.208 21.5248 23.5742 21.5249C24.2573 21.5249 24.8553 21.1868 25.2822 20.6802V22.3687C24.6845 22.622 24.0865 22.7915 23.4033 22.7915C21.2687 22.7913 19.5607 21.0178 19.5605 18.9067C19.5605 16.7111 21.269 14.9371 23.4893 15.106ZM36.8965 20.1733L38.9453 15.106H40.4824L37.3232 22.7915H36.5547L33.3945 15.106H34.9316L36.8965 20.1733ZM16.6572 14.937C17.4256 14.937 18.1943 15.2752 18.792 15.7817L18.0234 16.7954C17.6819 16.4577 17.255 16.2046 16.8281 16.2046C16.3159 16.1203 15.8892 16.5418 15.8037 17.0483C15.8037 17.4706 16.0601 17.6402 16.9141 17.978C18.6216 18.6535 19.0484 19.16 19.1338 20.1733V20.4263C19.0484 21.7774 17.9385 22.7909 16.5723 22.7065C15.5476 22.7065 14.5231 22.1999 14.0107 21.271L14.9492 20.3423C15.2053 20.9333 15.8034 21.3558 16.4863 21.356H16.5723C17.0846 21.3559 17.5967 20.8484 17.5967 20.2573C17.5966 19.9197 17.426 19.6664 17.1699 19.4976C16.8285 19.3287 16.487 19.1602 16.1455 19.0757C14.7792 18.6534 14.3516 18.0617 14.3516 17.0483V16.9644C14.4369 15.7822 15.4619 14.8528 16.6572 14.937ZM7.77637 15.106C9.82557 15.1904 11.4482 16.8793 11.3633 18.9058C11.3633 20.0036 10.8509 21.0178 9.99707 21.7778C9.22854 22.3689 8.28891 22.706 7.34961 22.6216H5.21484V15.106H7.77637ZM13.4131 22.6226H11.9609V15.106H13.4131V22.6226ZM45.2646 16.3726H42.6172V18.062H45.1797V19.3286H42.6172V21.356H45.2646V22.6226H41.166V15.106H45.2646V16.3726ZM48.3389 15.106C50.0465 15.106 50.986 15.8661 50.9863 17.3013C51.0717 18.3991 50.303 19.3286 49.2783 19.4976L51.584 22.6216H49.791L47.8262 19.5815H47.6562V22.6216H46.2041V15.106H48.3389ZM9.05762 16.9634C8.54527 16.5414 7.77669 16.2882 7.09375 16.3726H6.66699V21.355H7.09375C7.77681 21.4394 8.54527 21.1863 9.05762 20.7642C9.56985 20.2575 9.82613 19.5817 9.82617 18.8218C9.82609 18.1463 9.5699 17.47 9.05762 16.9634ZM47.6553 18.5688H48.083C49.0221 18.5687 49.4492 18.1461 49.4492 17.3862C49.4491 16.7109 49.022 16.2887 48.083 16.2886H47.6553V18.5688Z" fill="black"/>
<path fill-rule="evenodd" clip-rule="evenodd" d="M29.6391 14.9321C27.5042 14.9321 25.7109 16.6211 25.7109 18.8168C25.7109 20.928 27.4188 22.7015 29.6391 22.7859C31.8593 22.8704 33.5672 21.0969 33.6526 18.9013C33.5672 16.7056 31.8593 14.9321 29.6391 14.9321V14.9321Z" fill="#FD6020"/>
</svg>
