<svg width="56" height="38" viewBox="0 0 56 38" fill="none" xmlns="http://www.w3.org/2000/svg">
<rect x="0.408582" y="0.392957" width="54.228" height="36.9379" rx="4.32252" fill="white" stroke="#D9D9D9" stroke-width="0.785913"/>
<path d="M34.875 7.85889C40.7986 7.859 45.6006 12.7171 45.6006 18.7095C45.6004 24.7017 40.7985 29.559 34.875 29.5591C32.2191 29.5591 29.7903 28.5809 27.917 26.9634C26.0438 28.5806 23.6156 29.5591 20.96 29.5591C15.0365 29.559 10.2345 24.7017 10.2344 18.7095C10.2344 12.7171 15.0364 7.859 20.96 7.85889C23.6153 7.85889 26.0439 8.83677 27.917 10.4536C29.7902 8.83647 32.2194 7.85889 34.875 7.85889Z" fill="#ED0006"/>
<path d="M34.875 7.85889C40.7987 7.85889 45.6016 12.717 45.6016 18.7095C45.6014 24.7018 40.7986 29.5591 34.875 29.5591C32.2194 29.559 29.7911 28.5807 27.918 26.9634C30.2229 24.9733 31.6864 22.0152 31.6865 18.7095C31.6865 15.4033 30.2234 12.4437 27.918 10.4536C29.791 8.83667 32.2197 7.85899 34.875 7.85889Z" fill="#F9A000"/>
<path d="M27.916 10.4536C30.2216 12.4438 31.6855 15.4031 31.6855 18.7095C31.6854 22.0154 30.2212 24.9733 27.916 26.9634C25.6114 24.9733 24.1486 22.0149 24.1484 18.7095C24.1484 15.4036 25.611 12.4437 27.916 10.4536Z" fill="#FF5E00"/>
</svg>
