<svg width="65" height="66" viewBox="0 0 65 66" fill="none" xmlns="http://www.w3.org/2000/svg">
<defs>
  <linearGradient id="seoReportGradient" x1="0%" y1="0%" x2="100%" y2="100%">
    <stop offset="0%" style="stop-color:var(--gradient-primary-start, #0060FB);stop-opacity:1" />
    <stop offset="100%" style="stop-color:var(--gradient-primary-end, #0060FB);stop-opacity:1" />
  </linearGradient>
</defs>
<path d="M27.4219 18.8872V20.9185H22.3438V18.8872C22.3438 18.3485 22.5578 17.8318 22.9387 17.4509C23.3196 17.07 23.8363 16.856 24.375 16.856H25.3906C25.9294 16.856 26.446 17.07 26.8269 17.4509C27.2079 17.8318 27.4219 18.3485 27.4219 18.8872ZM19.2969 13.8091H18.2813C17.7425 13.8091 17.2259 14.0231 16.8449 14.404C16.464 14.785 16.25 15.3016 16.25 15.8403V20.9185H21.3281V15.8403C21.3281 15.3016 21.1141 14.785 20.7332 14.404C20.3523 14.0231 19.8356 13.8091 19.2969 13.8091ZM32.5 48.1588C34.0065 48.1588 35.4793 47.7121 36.7319 46.8751C37.9845 46.0381 38.9608 44.8485 39.5374 43.4566C40.1139 42.0648 40.2647 40.5332 39.9708 39.0556C39.6769 37.578 38.9515 36.2208 37.8862 35.1555C36.8209 34.0902 35.4636 33.3647 33.986 33.0708C32.5085 32.7769 30.9769 32.9278 29.585 33.5043C28.1932 34.0808 27.0035 35.0571 26.1665 36.3098C25.3296 37.5624 24.8828 39.0351 24.8828 40.5416C24.8851 42.5612 25.6883 44.4973 27.1163 45.9253C28.5443 47.3534 30.4805 48.1566 32.5 48.1588ZM31.4844 12.7935H30.4688C29.93 12.7935 29.4134 13.0075 29.0324 13.3884C28.6515 13.7693 28.4375 14.286 28.4375 14.8247V20.9185H33.5156V14.8247C33.5156 14.286 33.3016 13.7693 32.9207 13.3884C32.5398 13.0075 32.0231 12.7935 31.4844 12.7935ZM15.2344 28.0278H16.6822C18.1015 27.2426 19.697 26.8307 21.3191 26.8307C22.9412 26.8307 24.5367 27.2426 25.956 28.0278H34.5313C34.8006 28.0278 35.0589 27.9208 35.2494 27.7304C35.4399 27.5399 35.5469 27.2816 35.5469 27.0122C35.5469 26.7428 35.4399 26.4845 35.2494 26.294C35.0589 26.1036 34.8006 25.9966 34.5313 25.9966H15.2344C14.965 25.9966 14.7067 26.1036 14.5162 26.294C14.3258 26.4845 14.2188 26.7428 14.2188 27.0122C14.2188 27.2816 14.3258 27.5399 14.5162 27.7304C14.7067 27.9208 14.965 28.0278 15.2344 28.0278ZM43.6719 44.0963C44.9866 44.0969 46.2791 43.7571 47.4235 43.1101C48.568 42.463 49.5256 41.5308 50.203 40.4041C50.8804 39.2773 51.2547 37.9944 51.2894 36.6802C51.3241 35.3659 51.018 34.065 50.401 32.9041C49.784 31.7432 48.8769 30.7618 47.7682 30.0553C46.6594 29.3488 45.3867 28.9413 44.0738 28.8724C42.7609 28.8036 41.4525 29.0757 40.2759 29.6624C39.0993 30.249 38.0947 31.1302 37.3596 32.2202C39.296 33.3609 40.7752 35.1396 41.5438 37.2515C42.3123 39.3633 42.3223 41.6768 41.5719 43.7952C42.2543 43.9935 42.9612 44.0949 43.6719 44.0963ZM14.2188 23.9653C14.2188 24.2347 14.3258 24.493 14.5162 24.6835C14.7067 24.874 14.965 24.981 15.2344 24.981H34.5313C34.8006 24.981 35.0589 24.874 35.2494 24.6835C35.4399 24.493 35.5469 24.2347 35.5469 23.9653C35.5469 23.696 35.4399 23.4376 35.2494 23.2472C35.0589 23.0567 34.8006 22.9497 34.5313 22.9497H15.2344C14.965 22.9497 14.7067 23.0567 14.5162 23.2472C14.3258 23.4376 14.2188 23.696 14.2188 23.9653ZM11.6963 36.1528C11.7191 35.4674 11.8153 34.7865 11.9832 34.1216H11.1719C10.6333 34.121 10.117 33.9069 9.73617 33.526C9.35535 33.1452 9.14117 32.6289 9.14063 32.0903V10.7622C9.14117 10.2237 9.35535 9.70731 9.73617 9.32649C10.117 8.94567 10.6333 8.73149 11.1719 8.73096H53.8281C54.3667 8.73149 54.883 8.94567 55.2638 9.32649C55.6447 9.70731 55.8588 10.2237 55.8594 10.7622V32.0903C55.8588 32.6289 55.6447 33.1452 55.2638 33.526C54.883 33.9069 54.3667 34.121 53.8281 34.1216H53.0168C53.1847 34.7865 53.2809 35.4674 53.3038 36.1528H59.2847C59.4977 36.1535 59.7105 36.1674 59.9219 36.1944V7.71533C59.9219 6.90725 59.6009 6.13227 59.0295 5.56087C58.4581 4.98947 57.6831 4.66846 56.875 4.66846H8.12501C7.31693 4.66846 6.54194 4.98947 5.97054 5.56087C5.39914 6.13227 5.07813 6.90725 5.07813 7.71533V36.1944C5.28948 36.1674 5.50228 36.1535 5.71534 36.1528H11.6963ZM27.6404 32.2202C26.8559 31.0506 25.7629 30.121 24.4825 29.5345C23.202 28.948 21.7842 28.7275 20.3861 28.8973C18.9881 29.0672 17.6643 29.6208 16.5616 30.4969C15.4589 31.3729 14.6202 32.5372 14.1386 33.8606C13.657 35.1841 13.5512 36.6151 13.8329 37.9949C14.1147 39.3748 14.773 40.6498 15.7349 41.6785C16.6968 42.7072 17.9248 43.4494 19.2827 43.8231C20.6406 44.1967 22.0754 44.187 23.4281 43.7952C22.6778 41.6768 22.6877 39.3633 23.4562 37.2515C24.2248 35.1396 25.7041 33.3609 27.6404 32.2202ZM39.6094 23.9653H49.7656C50.035 23.9653 50.2933 23.8583 50.4838 23.6679C50.6743 23.4774 50.7813 23.2191 50.7813 22.9497C50.7813 22.6803 50.6743 22.422 50.4838 22.2315C50.2933 22.0411 50.035 21.9341 49.7656 21.9341H39.6094C39.34 21.9341 39.0817 22.0411 38.8912 22.2315C38.7008 22.422 38.5938 22.6803 38.5938 22.9497C38.5938 23.2191 38.7008 23.4774 38.8912 23.6679C39.0817 23.8583 39.34 23.9653 39.6094 23.9653ZM40.377 46.0946C39.4894 47.3596 38.3101 48.3922 36.939 49.105C35.568 49.8179 34.0453 50.1901 32.5 50.1901C30.9547 50.1901 29.4321 49.8179 28.061 49.105C26.6899 48.3922 25.5107 47.3596 24.623 46.0946C22.908 46.5701 21.3966 47.5956 20.321 49.0135C19.2454 50.4315 18.6652 52.1634 18.6695 53.9431V56.0286C18.6638 56.9894 18.9884 57.923 19.5891 58.673C20.1898 59.4229 21.03 59.9435 21.9689 60.1477C25.4241 60.9922 28.949 61.5201 32.5 61.7249C36.0513 61.5202 39.5765 60.9924 43.032 60.148C43.9708 59.9436 44.8108 59.4228 45.4113 58.6729C46.0118 57.9229 46.3363 56.9893 46.3305 56.0286V53.9431C46.3348 52.1634 45.7546 50.4315 44.679 49.0135C43.6035 47.5956 42.092 46.5701 40.377 46.0946ZM51.5489 42.0321C50.7535 43.1593 49.7256 44.1028 48.5345 44.7989C47.3434 45.495 46.0168 45.9275 44.6443 46.0672C45.8094 47.022 46.7474 48.2241 47.3903 49.5863C48.0333 50.9486 48.365 52.4368 48.3615 53.9431V56.0286C48.3591 56.4298 48.3186 56.8298 48.2408 57.2234C50.2796 56.91 52.4216 56.479 54.2033 56.0852C55.1421 55.881 55.9823 55.3603 56.5829 54.6104C57.1835 53.8604 57.5081 52.9269 57.5024 51.9661V49.8806C57.5067 48.1009 56.9265 46.369 55.8509 44.951C54.7753 43.5331 53.2639 42.5076 51.5489 42.0321ZM16.6383 53.9431C16.6348 52.4368 16.9666 50.9486 17.6095 49.5863C18.2525 48.2241 19.1904 47.022 20.3555 46.0672C18.983 45.9275 17.6564 45.495 16.4654 44.7989C15.2743 44.1028 14.2464 43.1593 13.451 42.0321C11.736 42.5076 10.2246 43.5331 9.149 44.951C8.07342 46.369 7.49322 48.1009 7.49756 49.8806V51.9661C7.49178 52.9269 7.81645 53.8605 8.41713 54.6105C9.01782 55.3604 9.85802 55.881 10.7969 56.0852C12.5783 56.479 14.7201 56.9099 16.7586 57.2233C16.6808 56.8298 16.6403 56.4298 16.6379 56.0286L16.6383 53.9431ZM39.6094 19.9028H49.7656C50.035 19.9028 50.2933 19.7958 50.4838 19.6054C50.6743 19.4149 50.7813 19.1566 50.7813 18.8872C50.7813 18.6178 50.6743 18.3595 50.4838 18.169C50.2933 17.9786 50.035 17.8716 49.7656 17.8716H39.6094C39.34 17.8716 39.0817 17.9786 38.8912 18.169C38.7008 18.3595 38.5938 18.6178 38.5938 18.8872C38.5938 19.1566 38.7008 19.4149 38.8912 19.6054C39.0817 19.7958 39.34 19.9028 39.6094 19.9028ZM59.2847 38.1841H53.1605C53.0379 38.8833 52.8381 39.5667 52.5647 40.2217C55.1201 41.0658 57.2357 42.89 58.4465 45.2935H59.0045C59.6708 45.2919 60.3183 45.0727 60.8485 44.6691C61.3786 44.2655 61.7624 43.6997 61.9412 43.0579L62.2219 42.0417C62.3432 41.5895 62.3593 41.1156 62.2689 40.6562C62.1785 40.1968 61.984 39.7643 61.7004 39.3918C61.4168 39.0193 61.0516 38.7167 60.6328 38.5074C60.214 38.298 59.7528 38.1874 59.2847 38.1841ZM12.4356 40.2216C12.1622 39.5666 11.9624 38.8832 11.8399 38.1841H5.71564C5.24743 38.1874 4.78621 38.2981 4.36742 38.5075C3.94862 38.7169 3.58339 39.0194 3.29977 39.392C3.01615 39.7646 2.82169 40.1972 2.73132 40.6566C2.64095 41.116 2.65707 41.59 2.77845 42.0422L3.05907 43.0579C3.23793 43.6996 3.62162 44.2654 4.15173 44.669C4.68183 45.0726 5.3293 45.2918 5.99555 45.2935H6.55353C7.76437 42.8899 9.88012 41.0656 12.4356 40.2216ZM39.6094 15.8403H49.7656C50.035 15.8403 50.2933 15.7333 50.4838 15.5429C50.6743 15.3524 50.7813 15.0941 50.7813 14.8247C50.7813 14.5553 50.6743 14.297 50.4838 14.1066C50.2933 13.9161 50.035 13.8091 49.7656 13.8091H39.6094C39.34 13.8091 39.0817 13.9161 38.8912 14.1066C38.7008 14.297 38.5938 14.5553 38.5938 14.8247C38.5938 15.0941 38.7008 15.3524 38.8912 15.5429C39.0817 15.7333 39.34 15.8403 39.6094 15.8403ZM39.2113 27.9466C40.6158 27.2005 42.1845 26.8171 43.7749 26.8313C45.3652 26.8455 46.9268 27.2568 48.3179 28.0278H49.7656C50.035 28.0278 50.2933 27.9208 50.4838 27.7304C50.6743 27.5399 50.7813 27.2816 50.7813 27.0122C50.7813 26.7428 50.6743 26.4845 50.4838 26.294C50.2933 26.1036 50.035 25.9966 49.7656 25.9966H39.6094C39.3753 25.9966 39.1484 26.0774 38.967 26.2255C38.7857 26.3735 38.661 26.5797 38.6142 26.809C38.5674 27.0384 38.6012 27.2769 38.71 27.4842C38.8188 27.6915 38.9959 27.8548 39.2113 27.9466Z" fill="url(#seoReportGradient)"/>
</svg>