<svg width="22" height="21" viewBox="0 0 22 21" fill="none" xmlns="http://www.w3.org/2000/svg">
<defs>
  <linearGradient id="starGradient" x1="0%" y1="0%" x2="100%" y2="100%">
    <stop offset="0%" style="stop-color:var(--gradient-primary-start, #0060FB);stop-opacity:1" />
    <stop offset="100%" style="stop-color:var(--gradient-primary-end, #0060FB);stop-opacity:1" />
  </linearGradient>
</defs>
<path d="M20.9666 9.7671L16.7478 13.4074L18.0331 18.8515C18.1041 19.147 18.0858 19.4569 17.9807 19.7421C17.8755 20.0272 17.6882 20.2748 17.4425 20.4536C17.1967 20.6324 16.9034 20.7343 16.5997 20.7465C16.2961 20.7587 15.9956 20.6806 15.7363 20.5221L11.0019 17.6083L6.26471 20.5221C6.00542 20.6797 5.7053 20.757 5.40215 20.7444C5.099 20.7318 4.8064 20.6297 4.56108 20.4511C4.31581 20.2725 4.12887 20.0253 4.02381 19.7406C3.91874 19.456 3.90024 19.1466 3.97064 18.8515L5.26064 13.4074L1.04189 9.7671C0.812487 9.56882 0.646574 9.30736 0.564878 9.01536C0.483182 8.72336 0.489323 8.41376 0.582534 8.12522C0.675745 7.83669 0.851894 7.58201 1.08898 7.39299C1.32607 7.20397 1.6136 7.08899 1.91564 7.06241L7.44689 6.61616L9.58064 1.45241C9.69614 1.17099 9.89271 0.930267 10.1454 0.760851C10.398 0.591435 10.6954 0.500977 10.9996 0.500977C11.3037 0.500977 11.6011 0.591435 11.8537 0.760851C12.1064 0.930267 12.303 1.17099 12.4185 1.45241L14.5513 6.61616L20.0825 7.06241C20.3852 7.088 20.6735 7.20234 20.9115 7.3911C21.1494 7.57986 21.3264 7.83464 21.4202 8.12352C21.514 8.41241 21.5204 8.72254 21.4387 9.01508C21.357 9.30761 21.1908 9.56954 20.961 9.76803L20.9666 9.7671Z" fill="url(#starGradient)"/>
</svg>