<svg width="16" height="17" viewBox="0 0 16 17" fill="none" xmlns="http://www.w3.org/2000/svg">
<defs>
<linearGradient id="gradient" x1="0%" y1="0%" x2="100%" y2="100%">
<stop offset="0%" style="stop-color:var(--gradient-primary-start);stop-opacity:1" />
<stop offset="100%" style="stop-color:var(--gradient-primary-end);stop-opacity:1" />
</linearGradient>
<clipPath id="clip0_11433_4755">
<rect width="16" height="16" fill="white" transform="translate(0 0.605957)"/>
</clipPath>
</defs>
<g clip-path="url(#clip0_11433_4755)">
<path d="M12.3538 3.43959C12.5058 3.80711 12.7975 4.09923 13.1648 4.25174L14.4527 4.7852C14.8202 4.93745 15.1122 5.22946 15.2644 5.597C15.4167 5.96454 15.4167 6.37751 15.2644 6.74505L14.7314 8.03201C14.5791 8.39972 14.5789 8.8131 14.7319 9.18063L15.264 10.4672C15.3395 10.6493 15.3783 10.8444 15.3784 11.0414C15.3784 11.2385 15.3396 11.4336 15.2642 11.6157C15.1888 11.7978 15.0782 11.9632 14.9389 12.1025C14.7995 12.2418 14.634 12.3523 14.452 12.4277L13.165 12.9608C12.7975 13.1127 12.5053 13.4044 12.3528 13.7717L11.8194 15.0596C11.6671 15.4271 11.3751 15.7191 11.0076 15.8714C10.64 16.0236 10.2271 16.0236 9.85953 15.8714L8.57256 15.3383C8.20501 15.1864 7.7922 15.1867 7.42487 15.3392L6.13698 15.8719C5.76965 16.0237 5.35704 16.0236 4.9898 15.8715C4.62255 15.7194 4.33071 15.4277 4.17836 15.0606L3.64474 13.7723C3.49278 13.4048 3.20109 13.1127 2.83381 12.9601L1.54592 12.4267C1.17854 12.2745 0.886615 11.9827 0.734317 11.6154C0.58202 11.248 0.581813 10.8352 0.733743 10.4678L1.26682 9.1808C1.41869 8.81325 1.41838 8.40043 1.26596 8.03311L0.733646 6.74429C0.658174 6.56225 0.619313 6.36713 0.619281 6.17006C0.61925 5.973 0.658049 5.77786 0.733462 5.5958C0.808875 5.41374 0.919423 5.24832 1.05879 5.10899C1.19816 4.96967 1.36361 4.85918 1.5457 4.78382L2.83266 4.25074C3.19986 4.09891 3.49181 3.8076 3.64443 3.44074L4.17789 2.15285C4.33014 1.78531 4.62215 1.49329 4.98969 1.34105C5.35723 1.18881 5.7702 1.18881 6.13774 1.34105L7.4247 1.87413C7.79226 2.026 8.20507 2.02569 8.5724 1.87327L9.86083 1.34188C10.2283 1.18972 10.6412 1.18976 11.0087 1.34197C11.3761 1.49418 11.6681 1.7861 11.8204 2.15355L12.354 3.44182L12.3538 3.43959Z" fill="url(#gradient)"/>
<path fill-rule="evenodd" clip-rule="evenodd" d="M11.1333 6.50887C11.2401 6.34099 11.276 6.13752 11.2328 5.94324C11.1897 5.74895 11.0711 5.57975 10.9033 5.47287C10.7354 5.36599 10.5319 5.33017 10.3376 5.37331C10.1433 5.41644 9.97414 5.53499 9.86726 5.70287L6.93026 10.3179L5.58626 8.63787C5.46201 8.48245 5.2811 8.38276 5.08335 8.36073C4.88559 8.33869 4.68718 8.39612 4.53176 8.52037C4.37634 8.64462 4.27665 8.82553 4.25462 9.02328C4.23258 9.22104 4.29001 9.41945 4.41426 9.57487L6.41426 12.0749C6.4888 12.1682 6.58453 12.2423 6.6935 12.2911C6.80246 12.34 6.92152 12.3621 7.04075 12.3556C7.15998 12.3492 7.27595 12.3143 7.37901 12.254C7.48207 12.1937 7.56923 12.1097 7.63326 12.0089L11.1333 6.50887Z" fill="white"/>
</g>
</svg>