<svg width="56" height="38" viewBox="0 0 56 38" fill="none" xmlns="http://www.w3.org/2000/svg">
<rect x="0.392957" y="0.392957" width="54.228" height="36.9379" rx="4.32252" fill="white" stroke="#D9D9D9" stroke-width="0.785913"/>
<path fill-rule="evenodd" clip-rule="evenodd" d="M16.7019 25.5549H13.3691L10.8699 16.0204C10.7513 15.5818 10.4995 15.1941 10.129 15.0114C9.20436 14.5521 8.18552 14.1866 7.07405 14.0023V13.6352H12.4429C13.1839 13.6352 13.7396 14.1866 13.8322 14.827L15.1289 21.7046L18.4601 13.6352H21.7003L16.7019 25.5549ZM23.5526 25.5549H20.4051L22.9969 13.6352H26.1444L23.5526 25.5549ZM30.2167 16.9373C30.3093 16.2953 30.8651 15.9282 31.5134 15.9282C32.5323 15.8361 33.6421 16.0204 34.5683 16.478L35.1241 13.9117C34.1978 13.5446 33.179 13.3603 32.2544 13.3603C29.1995 13.3603 26.9765 15.0113 26.9765 17.3028C26.9765 19.046 28.5511 19.9613 29.6626 20.5127C30.8651 21.0626 31.3282 21.4296 31.2355 21.9795C31.2355 22.8042 30.3093 23.1713 29.3847 23.1713C28.2733 23.1713 27.1618 22.8964 26.1446 22.4371L25.5888 25.0051C26.7003 25.4627 27.9028 25.6471 29.0142 25.6471C32.4396 25.7376 34.5683 24.0882 34.5683 21.6124C34.5683 18.4946 30.2167 18.3119 30.2167 16.9373ZM45.5838 25.5549L43.0846 13.6352H40.4002C39.8444 13.6352 39.2887 14.0023 39.1034 14.5521L34.4756 25.5549H37.7157L38.3625 23.8133H42.3436L42.7141 25.5549H45.5838ZM40.8632 16.8451L41.7878 21.3375H39.196L40.8632 16.8451Z" fill="#172B85"/>
</svg>
