<svg width="54" height="41" viewBox="0 0 54 41" fill="none" xmlns="http://www.w3.org/2000/svg">
<path d="M8.90446 18.2816C7.20879 18.2816 5.73867 17.9191 4.49411 17.1941C3.25357 16.4691 2.29497 15.432 1.61832 14.0827C0.945689 12.7334 0.609375 11.1545 0.609375 9.34607C0.609375 7.5336 0.941661 5.95675 1.60623 4.61552C2.27484 3.27429 3.23343 2.24118 4.48202 1.51619C5.73464 0.791206 7.20879 0.428711 8.90446 0.428711C10.6001 0.428711 12.0682 0.791206 13.3088 1.51619C14.5533 2.24118 15.5079 3.27429 16.1725 4.61552C16.8411 5.95675 17.1754 7.5336 17.1754 9.34607C17.1754 11.1545 16.837 12.7334 16.1604 14.0827C15.4837 15.432 14.5251 16.4691 13.2846 17.1941C12.04 17.9191 10.58 18.2816 8.90446 18.2816ZM8.90446 15.7381C10.4994 15.7381 11.746 15.1863 12.6442 14.0827C13.5383 12.9791 13.9854 11.4002 13.9854 9.34607C13.9854 7.28791 13.5383 5.71106 12.6442 4.61552C11.746 3.51998 10.4994 2.97221 8.90446 2.97221C7.28934 2.97221 6.03269 3.51998 5.13451 4.61552C4.24036 5.71106 3.79328 7.28791 3.79328 9.34607C3.79328 11.4002 4.24036 12.9791 5.13451 14.0827C6.03269 15.1863 7.28934 15.7381 8.90446 15.7381Z" fill="#7E5BF6"/>
<path d="M34.9959 0.53125C35.455 0.53125 35.8236 0.674235 36.1015 0.960202C36.3834 1.2502 36.5244 1.63283 36.5244 2.1081V16.7227C36.5244 17.1859 36.3935 17.5483 36.1317 17.8102C35.8658 18.076 35.5195 18.2089 35.0925 18.2089C34.6656 18.2089 34.3273 18.076 34.0775 17.8102C33.8318 17.5483 33.709 17.1859 33.709 16.7227V6.5547L29.5101 14.5054C29.3127 14.8639 29.0993 15.1297 28.8697 15.3029C28.6401 15.4761 28.3683 15.5627 28.0541 15.5627C27.744 15.5627 27.4721 15.4801 27.2385 15.315C27.0089 15.1539 26.7954 14.884 26.5981 14.5054L22.375 6.67553V16.7227C22.375 17.1697 22.2481 17.5282 21.9944 17.7981C21.7406 18.072 21.4003 18.2089 20.9734 18.2089C20.5424 18.2089 20.2041 18.076 19.9584 17.8102C19.7127 17.5483 19.5898 17.1859 19.5898 16.7227V2.1081C19.5898 1.63283 19.7248 1.2502 19.9946 0.960202C20.2685 0.674235 20.635 0.53125 21.0942 0.53125C21.7346 0.53125 22.2361 0.883675 22.5985 1.58853L28.0783 12.0344L33.5338 1.58853C33.8963 0.883675 34.3836 0.53125 34.9959 0.53125Z" fill="#7E5BF6"/>
<path d="M52.7443 8.6508C53.1229 8.6508 53.427 8.76157 53.6565 8.98309C53.8861 9.20461 54.0009 9.49662 54.0009 9.85912V15.1697C54.0009 15.9269 53.9022 16.4626 53.7049 16.7767C53.5075 17.0869 53.1047 17.3406 52.4966 17.538C51.84 17.7675 51.0748 17.9488 50.2008 18.0817C49.3267 18.2146 48.487 18.2811 47.6814 18.2811C45.8891 18.2811 44.3344 17.9266 43.0173 17.2178C41.7003 16.5089 40.6913 15.4838 39.9905 14.1426C39.2937 12.8014 38.9453 11.2024 38.9453 9.34558C38.9453 7.517 39.2937 5.9321 39.9905 4.59087C40.6913 3.24964 41.6842 2.22056 42.969 1.50362C44.2498 0.78669 45.7642 0.428223 47.5123 0.428223C49.8322 0.428223 51.7333 1.05453 53.2155 2.30715C53.4129 2.4884 53.5559 2.66965 53.6445 2.85089C53.7371 3.03214 53.7834 3.24561 53.7834 3.4913C53.7834 3.85379 53.6827 4.15789 53.4813 4.40358C53.284 4.6533 53.0463 4.77816 52.7684 4.77816C52.5872 4.77816 52.422 4.74795 52.273 4.68753C52.124 4.63114 51.9508 4.53649 51.7534 4.40358C51.0325 3.89609 50.3578 3.53963 49.7295 3.33422C49.1052 3.12478 48.3984 3.02006 47.6089 3.02006C45.8166 3.02006 44.4633 3.55172 43.549 4.61503C42.6347 5.67835 42.1776 7.2552 42.1776 9.34558C42.1776 13.623 44.0545 15.7617 47.8083 15.7617C48.924 15.7617 50.0417 15.6047 51.1614 15.2905V10.9224H48.3762C47.9815 10.9224 47.6714 10.8238 47.4458 10.6264C47.2243 10.429 47.1135 10.1491 47.1135 9.78662C47.1135 9.42413 47.2243 9.1442 47.4458 8.94684C47.6714 8.74948 47.9815 8.6508 48.3762 8.6508H52.7443Z" fill="#7E5BF6"/>
<path d="M9.90035 40.8259C9.40897 40.8259 9.01828 40.6829 8.72829 40.397C8.44232 40.107 8.29934 39.7243 8.29934 39.2491V25.9153H3.8044C2.81761 25.9153 2.32422 25.4803 2.32422 24.6103C2.32422 23.7363 2.81761 23.2993 3.8044 23.2993H15.9782C16.965 23.2993 17.4584 23.7363 17.4584 24.6103C17.4584 25.4803 16.965 25.9153 15.9782 25.9153H11.4832V39.2491C11.4832 39.7243 11.3382 40.107 11.0483 40.397C10.7623 40.6829 10.3797 40.8259 9.90035 40.8259Z" fill="#333333"/>
<path d="M28.1701 40.929C26.4744 40.929 25.0043 40.5665 23.7597 39.8415C22.5192 39.1165 21.5606 38.0794 20.8839 36.7301C20.2113 35.3808 19.875 33.802 19.875 31.9935C19.875 30.1811 20.2073 28.6042 20.8719 27.263C21.5405 25.9218 22.4991 24.8886 23.7476 24.1637C25.0003 23.4387 26.4744 23.0762 28.1701 23.0762C29.8657 23.0762 31.3339 23.4387 32.5744 24.1637C33.819 24.8886 34.7735 25.9218 35.4381 27.263C36.1067 28.6042 36.441 30.1811 36.441 31.9935C36.441 33.802 36.1027 35.3808 35.426 36.7301C34.7494 38.0794 33.7908 39.1165 32.5502 39.8415C31.3057 40.5665 29.8456 40.929 28.1701 40.929ZM28.1701 38.3855C29.7651 38.3855 31.0116 37.8337 31.9098 36.7301C32.804 35.6265 33.251 34.0477 33.251 31.9935C33.251 29.9354 32.804 28.3585 31.9098 27.263C31.0116 26.1674 29.7651 25.6197 28.1701 25.6197C26.555 25.6197 25.2983 26.1674 24.4001 27.263C23.506 28.3585 23.0589 29.9354 23.0589 31.9935C23.0589 34.0477 23.506 35.6265 24.4001 36.7301C25.2983 37.8337 26.555 38.3855 28.1701 38.3855Z" fill="#7E5BF6"/>
<path d="M28.1701 40.929C26.4744 40.929 25.0043 40.5665 23.7597 39.8415C22.5192 39.1165 21.5606 38.0794 20.8839 36.7301C20.2113 35.3808 19.875 33.802 19.875 31.9935C19.875 30.1811 20.2073 28.6042 20.8719 27.263C21.5405 25.9218 22.4991 24.8886 23.7476 24.1637C25.0003 23.4387 26.4744 23.0762 28.1701 23.0762C29.8657 23.0762 31.3339 23.4387 32.5744 24.1637C33.819 24.8886 34.7735 25.9218 35.4381 27.263C36.1067 28.6042 36.441 30.1811 36.441 31.9935C36.441 33.802 36.1027 35.3808 35.426 36.7301C34.7494 38.0794 33.7908 39.1165 32.5502 39.8415C31.3057 40.5665 29.8456 40.929 28.1701 40.929Z" fill="#333333"/>
<path d="M28.1698 38.3855C29.7647 38.3855 31.0113 37.8337 31.9095 36.7301C32.8037 35.6265 33.2507 34.0476 33.2507 31.9935C33.2507 29.9353 32.8037 28.3585 31.9095 27.2629C31.0113 26.1674 29.7647 25.6196 28.1698 25.6196C26.5547 25.6196 25.298 26.1674 24.3998 27.2629C23.5057 28.3585 23.0586 29.9353 23.0586 31.9935C23.0586 34.0476 23.5057 35.6265 24.3998 36.7301C25.298 37.8337 26.5547 38.3855 28.1698 38.3855Z" fill="#DFD7FE"/>
<path d="M52.3623 38.3124C52.6885 38.6225 52.8517 38.9749 52.8517 39.3696C52.8517 39.7482 52.7087 40.0825 52.4227 40.3725C52.1327 40.6585 51.7904 40.8015 51.3956 40.8015C50.9848 40.8015 50.6062 40.6303 50.2598 40.288L42.0433 32.585V39.2488C42.0433 39.7241 41.8983 40.1107 41.6083 40.4088C41.3223 40.7068 40.9316 40.8559 40.4362 40.8559C39.961 40.8559 39.5783 40.7068 39.2883 40.4088C39.0024 40.1107 38.8594 39.7241 38.8594 39.2488V24.7551C38.8594 24.2798 39.0024 23.8972 39.2883 23.6072C39.5783 23.3212 39.961 23.1782 40.4362 23.1782C40.9316 23.1782 41.3223 23.3212 41.6083 23.6072C41.8983 23.8972 42.0433 24.2798 42.0433 24.7551V31.0987L49.988 23.6434C50.286 23.3494 50.6243 23.2024 51.0029 23.2024C51.3815 23.2024 51.7138 23.3454 51.9998 23.6313C52.2898 23.9213 52.4348 24.2556 52.4348 24.6342C52.4348 25.0128 52.2697 25.3572 51.9394 25.6674L45.2997 31.7452L52.3623 38.3124Z" fill="#333333"/>
</svg>
