<svg width="186" height="32" viewBox="0 0 186 32" fill="none" xmlns="http://www.w3.org/2000/svg">
<path d="M14.5098 31.8338C11.5437 31.8338 8.9722 31.1997 6.7952 29.9316C4.62525 28.6634 2.94846 26.8492 1.76485 24.4891C0.588283 22.1289 0 19.3671 0 16.2038C0 13.0334 0.581238 10.2752 1.74371 7.92907C2.91323 5.58298 4.59002 3.77586 6.77406 2.5077C8.96515 1.23955 11.5437 0.605469 14.5098 0.605469C17.4759 0.605469 20.0439 1.23955 22.2139 2.5077C24.3909 3.77586 26.0606 5.58298 27.2231 7.92907C28.3926 10.2752 28.9774 13.0334 28.9774 16.2038C28.9774 19.3671 28.3855 22.1289 27.2019 24.4891C26.0183 26.8492 24.3415 28.6634 22.1716 29.9316C19.9946 31.1997 17.4407 31.8338 14.5098 31.8338ZM14.5098 27.3847C17.2998 27.3847 19.4803 26.4195 21.0514 24.4891C22.6154 22.5586 23.3975 19.7969 23.3975 16.2038C23.3975 12.6036 22.6154 9.84539 21.0514 7.92907C19.4803 6.01274 17.2998 5.05458 14.5098 5.05458C11.6846 5.05458 9.48651 6.01274 7.9154 7.92907C6.35135 9.84539 5.56932 12.6036 5.56932 16.2038C5.56932 19.7969 6.35135 22.5586 7.9154 24.4891C9.48651 26.4195 11.6846 27.3847 14.5098 27.3847Z" fill="#7E5BF6"/>
<path d="M60.1514 0.785156C60.9546 0.785156 61.5992 1.03527 62.0854 1.53548C62.5785 2.04274 62.8251 2.71205 62.8251 3.5434V29.1073C62.8251 29.9175 62.5961 30.5516 62.1382 31.0095C61.6732 31.4745 61.0673 31.707 60.3205 31.707C59.5737 31.707 58.9819 31.4745 58.5451 31.0095C58.1153 30.5516 57.9004 29.9175 57.9004 29.1073V11.3214L50.5557 25.2289C50.2105 25.8559 49.8371 26.3209 49.4355 26.6238C49.0339 26.9268 48.5584 27.0782 48.0088 27.0782C47.4663 27.0782 46.9908 26.9338 46.5822 26.645C46.1806 26.3631 45.8072 25.8911 45.462 25.2289L38.075 11.5328V29.1073C38.075 29.8893 37.853 30.5164 37.4092 30.9884C36.9653 31.4675 36.37 31.707 35.6232 31.707C34.8693 31.707 34.2775 31.4745 33.8478 31.0095C33.418 30.5516 33.2031 29.9175 33.2031 29.1073V3.5434C33.2031 2.71205 33.4391 2.04274 33.9112 1.53548C34.3903 1.03527 35.0314 0.785156 35.8345 0.785156C36.9548 0.785156 37.8319 1.40162 38.466 2.63455L48.0511 20.9066L57.594 2.63455C58.2281 1.40162 59.0805 0.785156 60.1514 0.785156Z" fill="#7E5BF6"/>
<path d="M91.1919 14.9885C91.8542 14.9885 92.3861 15.1822 92.7877 15.5697C93.1893 15.9572 93.39 16.468 93.39 17.1021V26.3913C93.39 27.7158 93.2174 28.6528 92.8722 29.2024C92.527 29.7449 91.8225 30.1887 90.7586 30.5339C89.6102 30.9355 88.2716 31.2526 86.7428 31.4851C85.214 31.7175 83.745 31.8338 82.336 31.8338C79.2008 31.8338 76.4813 31.2138 74.1775 29.9738C71.8737 28.7339 70.1088 26.9408 68.8829 24.5947C67.6641 22.2487 67.0547 19.4517 67.0547 16.2038C67.0547 13.0052 67.6641 10.2329 68.8829 7.88679C70.1088 5.54071 71.8455 3.74063 74.0929 2.48657C76.3334 1.2325 78.9824 0.605469 82.0401 0.605469C86.0982 0.605469 89.4235 1.70101 92.0162 3.89211C92.3614 4.20914 92.6115 4.52618 92.7665 4.84322C92.9286 5.16026 93.0096 5.53366 93.0096 5.96342C93.0096 6.5975 92.8335 7.12942 92.4812 7.55919C92.136 7.996 91.7203 8.2144 91.2342 8.2144C90.9171 8.2144 90.6283 8.16156 90.3676 8.05588C90.1069 7.95725 89.804 7.79168 89.4588 7.55919C88.1977 6.67148 87.0176 6.04797 85.9185 5.68866C84.8265 5.3223 83.59 5.13912 82.2091 5.13912C79.074 5.13912 76.7068 6.0691 75.1075 7.92907C73.5082 9.78903 72.7085 12.5473 72.7085 16.2038C72.7085 23.6859 75.9917 27.427 82.5579 27.427C84.5094 27.427 86.4645 27.1522 88.4231 26.6027V18.962H83.5513C82.8608 18.962 82.3183 18.7894 81.9238 18.4442C81.5363 18.099 81.3426 17.6093 81.3426 16.9752C81.3426 16.3412 81.5363 15.8515 81.9238 15.5063C82.3183 15.1611 82.8608 14.9885 83.5513 14.9885H91.1919Z" fill="#7E5BF6"/>
<path d="M110.873 31.6542C110.014 31.6542 109.33 31.4041 108.823 30.9039C108.323 30.3967 108.073 29.7273 108.073 28.896V5.57251H100.21C98.4841 5.57251 97.6211 4.81162 97.6211 3.28983C97.6211 1.761 98.4841 0.996582 100.21 0.996582H121.505C123.231 0.996582 124.094 1.761 124.094 3.28983C124.094 4.81162 123.231 5.57251 121.505 5.57251H113.642V28.896C113.642 29.7273 113.388 30.3967 112.881 30.9039C112.381 31.4041 111.712 31.6542 110.873 31.6542Z" fill="white"/>
<path d="M142.83 31.8338C139.864 31.8338 137.293 31.1997 135.116 29.9316C132.946 28.6634 131.269 26.8492 130.085 24.4891C128.909 22.1289 128.32 19.3671 128.32 16.2038C128.32 13.0334 128.902 10.2752 130.064 7.92907C131.234 5.58298 132.91 3.77586 135.094 2.5077C137.285 1.23955 139.864 0.605469 142.83 0.605469C145.796 0.605469 148.364 1.23955 150.534 2.5077C152.711 3.77586 154.381 5.58298 155.543 7.92907C156.713 10.2752 157.298 13.0334 157.298 16.2038C157.298 19.3671 156.706 22.1289 155.522 24.4891C154.339 26.8492 152.662 28.6634 150.492 29.9316C148.315 31.1997 145.761 31.8338 142.83 31.8338ZM142.83 27.3847C145.62 27.3847 147.801 26.4195 149.372 24.4891C150.936 22.5586 151.718 19.7969 151.718 16.2038C151.718 12.6036 150.936 9.84539 149.372 7.92907C147.801 6.01274 145.62 5.05458 142.83 5.05458C140.005 5.05458 137.807 6.01274 136.236 7.92907C134.672 9.84539 133.89 12.6036 133.89 16.2038C133.89 19.7969 134.672 22.5586 136.236 24.4891C137.807 26.4195 140.005 27.3847 142.83 27.3847Z" fill="#7E5BF6"/>
<path d="M142.83 31.8338C139.864 31.8338 137.293 31.1997 135.116 29.9316C132.946 28.6634 131.269 26.8492 130.085 24.4891C128.909 22.1289 128.32 19.3671 128.32 16.2038C128.32 13.0334 128.902 10.2752 130.064 7.92907C131.234 5.58298 132.91 3.77586 135.094 2.5077C137.285 1.23955 139.864 0.605469 142.83 0.605469C145.796 0.605469 148.364 1.23955 150.534 2.5077C152.711 3.77586 154.381 5.58298 155.543 7.92907C156.713 10.2752 157.298 13.0334 157.298 16.2038C157.298 19.3671 156.706 22.1289 155.522 24.4891C154.339 26.8492 152.662 28.6634 150.492 29.9316C148.315 31.1997 145.761 31.8338 142.83 31.8338Z" fill="white"/>
<path d="M142.831 27.3848C145.621 27.3848 147.802 26.4196 149.373 24.4892C150.937 22.5588 151.719 19.797 151.719 16.2039C151.719 12.6037 150.937 9.8455 149.373 7.92917C147.802 6.01285 145.621 5.05469 142.831 5.05469C140.006 5.05469 137.808 6.01285 136.237 7.92917C134.673 9.8455 133.891 12.6037 133.891 16.2039C133.891 19.797 134.673 22.5588 136.237 24.4892C137.808 26.4196 140.006 27.3848 142.831 27.3848Z" fill="#242424"/>
<path d="M185.143 27.2579C185.713 27.8004 185.999 28.4169 185.999 29.1073C185.999 29.7696 185.749 30.3543 185.249 30.8616C184.741 31.3618 184.142 31.6119 183.452 31.6119C182.733 31.6119 182.071 31.3125 181.465 30.7136L167.093 17.2395V28.8959C167.093 29.7273 166.839 30.4036 166.332 30.925C165.832 31.4463 165.148 31.707 164.282 31.707C163.45 31.707 162.781 31.4463 162.274 30.925C161.774 30.4036 161.523 29.7273 161.523 28.8959V3.5434C161.523 2.71205 161.774 2.04274 162.274 1.53548C162.781 1.03527 163.45 0.785156 164.282 0.785156C165.148 0.785156 165.832 1.03527 166.332 1.53548C166.839 2.04274 167.093 2.71205 167.093 3.5434V14.6398L180.99 1.59889C181.511 1.08458 182.103 0.827429 182.765 0.827429C183.427 0.827429 184.009 1.07754 184.509 1.57775C185.016 2.08502 185.27 2.66978 185.27 3.33203C185.27 3.99429 184.981 4.59667 184.403 5.13916L172.789 15.7705L185.143 27.2579Z" fill="white"/>
</svg>
