<svg width="186" height="32" viewBox="0 0 186 32" fill="none" xmlns="http://www.w3.org/2000/svg">
<path d="M14.5098 31.6141C11.5437 31.6141 8.9722 30.98 6.7952 29.7118C4.62525 28.4437 2.94846 26.6295 1.76485 24.2693C0.588283 21.9092 0 19.1474 0 15.9841C0 12.8137 0.581238 10.0554 1.74371 7.70934C2.91323 5.36325 4.59002 3.55613 6.77406 2.28798C8.96515 1.01982 11.5437 0.385742 14.5098 0.385742C17.4759 0.385742 20.0439 1.01982 22.2139 2.28798C24.3909 3.55613 26.0606 5.36325 27.2231 7.70934C28.3926 10.0554 28.9774 12.8137 28.9774 15.9841C28.9774 19.1474 28.3855 21.9092 27.2019 24.2693C26.0183 26.6295 24.3415 28.4437 22.1716 29.7118C19.9946 30.98 17.4407 31.6141 14.5098 31.6141ZM14.5098 27.165C17.2998 27.165 19.4803 26.1997 21.0514 24.2693C22.6154 22.3389 23.3975 19.5772 23.3975 15.9841C23.3975 12.3839 22.6154 9.62566 21.0514 7.70934C19.4803 5.79302 17.2998 4.83485 14.5098 4.83485C11.6846 4.83485 9.48651 5.79302 7.9154 7.70934C6.35135 9.62566 5.56932 12.3839 5.56932 15.9841C5.56932 19.5772 6.35135 22.3389 7.9154 24.2693C9.48651 26.1997 11.6846 27.165 14.5098 27.165Z" fill="#7E5BF6"/>
<path d="M60.1514 0.56543C60.9546 0.56543 61.5992 0.815539 62.0854 1.31576C62.5785 1.82302 62.8251 2.49232 62.8251 3.32367V28.8876C62.8251 29.6978 62.5961 30.3319 62.1382 30.7898C61.6732 31.2548 61.0673 31.4873 60.3205 31.4873C59.5737 31.4873 58.9819 31.2548 58.5451 30.7898C58.1153 30.3319 57.9004 29.6978 57.9004 28.8876V11.1017L50.5557 25.0091C50.2105 25.6362 49.8371 26.1011 49.4355 26.4041C49.0339 26.707 48.5584 26.8585 48.0088 26.8585C47.4663 26.8585 46.9908 26.7141 46.5822 26.4252C46.1806 26.1434 45.8072 25.6714 45.462 25.0091L38.075 11.313V28.8876C38.075 29.6696 37.853 30.2966 37.4092 30.7687C36.9653 31.2477 36.37 31.4873 35.6232 31.4873C34.8693 31.4873 34.2775 31.2548 33.8478 30.7898C33.418 30.3319 33.2031 29.6978 33.2031 28.8876V3.32367C33.2031 2.49232 33.4391 1.82302 33.9112 1.31576C34.3903 0.815539 35.0314 0.56543 35.8345 0.56543C36.9548 0.56543 37.8319 1.18189 38.466 2.41482L48.0511 20.6868L57.594 2.41482C58.2281 1.18189 59.0805 0.56543 60.1514 0.56543Z" fill="#7E5BF6"/>
<path d="M91.1919 14.7687C91.8542 14.7687 92.3861 14.9625 92.7877 15.35C93.1893 15.7375 93.39 16.2483 93.39 16.8823V26.1716C93.39 27.4961 93.2174 28.4331 92.8722 28.9826C92.527 29.5251 91.8225 29.969 90.7586 30.3142C89.6102 30.7158 88.2716 31.0328 86.7428 31.2653C85.214 31.4978 83.745 31.6141 82.336 31.6141C79.2008 31.6141 76.4813 30.9941 74.1775 29.7541C71.8737 28.5141 70.1088 26.7211 68.8829 24.375C67.6641 22.0289 67.0547 19.2319 67.0547 15.9841C67.0547 12.7855 67.6641 10.0132 68.8829 7.66707C70.1088 5.32098 71.8455 3.5209 74.0929 2.26684C76.3334 1.01278 78.9824 0.385742 82.0401 0.385742C86.0982 0.385742 89.4235 1.48129 92.0162 3.67238C92.3614 3.98942 92.6115 4.30646 92.7665 4.62349C92.9286 4.94053 93.0096 5.31393 93.0096 5.7437C93.0096 6.37778 92.8335 6.9097 92.4812 7.33946C92.136 7.77627 91.7203 7.99467 91.2342 7.99467C90.9171 7.99467 90.6283 7.94184 90.3676 7.83616C90.1069 7.73752 89.804 7.57196 89.4588 7.33946C88.1977 6.45175 87.0176 5.82824 85.9185 5.46893C84.8265 5.10257 83.59 4.9194 82.2091 4.9194C79.074 4.9194 76.7068 5.84938 75.1075 7.70934C73.5082 9.5693 72.7085 12.3275 72.7085 15.9841C72.7085 23.4662 75.9917 27.2072 82.5579 27.2072C84.5094 27.2072 86.4645 26.9325 88.4231 26.3829V18.7423H83.5513C82.8608 18.7423 82.3183 18.5697 81.9238 18.2245C81.5363 17.8792 81.3426 17.3896 81.3426 16.7555C81.3426 16.1214 81.5363 15.6318 81.9238 15.2866C82.3183 14.9413 82.8608 14.7687 83.5513 14.7687H91.1919Z" fill="#7E5BF6"/>
<path d="M110.873 31.4345C110.014 31.4345 109.33 31.1844 108.823 30.6842C108.323 30.1769 108.073 29.5076 108.073 28.6763V5.35278H100.21C98.4841 5.35278 97.6211 4.59189 97.6211 3.0701C97.6211 1.54127 98.4841 0.776855 100.21 0.776855H121.505C123.231 0.776855 124.094 1.54127 124.094 3.0701C124.094 4.59189 123.231 5.35278 121.505 5.35278H113.642V28.6763C113.642 29.5076 113.388 30.1769 112.881 30.6842C112.381 31.1844 111.712 31.4345 110.873 31.4345Z" fill="#333333"/>
<path d="M142.83 31.6141C139.864 31.6141 137.293 30.98 135.116 29.7118C132.946 28.4437 131.269 26.6295 130.085 24.2693C128.909 21.9092 128.32 19.1474 128.32 15.9841C128.32 12.8137 128.902 10.0554 130.064 7.70934C131.234 5.36325 132.91 3.55613 135.094 2.28798C137.285 1.01982 139.864 0.385742 142.83 0.385742C145.796 0.385742 148.364 1.01982 150.534 2.28798C152.711 3.55613 154.381 5.36325 155.543 7.70934C156.713 10.0554 157.298 12.8137 157.298 15.9841C157.298 19.1474 156.706 21.9092 155.522 24.2693C154.339 26.6295 152.662 28.4437 150.492 29.7118C148.315 30.98 145.761 31.6141 142.83 31.6141ZM142.83 27.165C145.62 27.165 147.801 26.1997 149.372 24.2693C150.936 22.3389 151.718 19.5772 151.718 15.9841C151.718 12.3839 150.936 9.62566 149.372 7.70934C147.801 5.79302 145.62 4.83485 142.83 4.83485C140.005 4.83485 137.807 5.79302 136.236 7.70934C134.672 9.62566 133.89 12.3839 133.89 15.9841C133.89 19.5772 134.672 22.3389 136.236 24.2693C137.807 26.1997 140.005 27.165 142.83 27.165Z" fill="#7E5BF6"/>
<path d="M142.83 31.6141C139.864 31.6141 137.293 30.98 135.116 29.7118C132.946 28.4437 131.269 26.6295 130.085 24.2693C128.909 21.9092 128.32 19.1474 128.32 15.9841C128.32 12.8137 128.902 10.0554 130.064 7.70934C131.234 5.36325 132.91 3.55613 135.094 2.28798C137.285 1.01982 139.864 0.385742 142.83 0.385742C145.796 0.385742 148.364 1.01982 150.534 2.28798C152.711 3.55613 154.381 5.36325 155.543 7.70934C156.713 10.0554 157.298 12.8137 157.298 15.9841C157.298 19.1474 156.706 21.9092 155.522 24.2693C154.339 26.6295 152.662 28.4437 150.492 29.7118C148.315 30.98 145.761 31.6141 142.83 31.6141Z" fill="#333333"/>
<path d="M142.831 27.1651C145.621 27.1651 147.802 26.1999 149.373 24.2694C150.937 22.339 151.719 19.5773 151.719 15.9842C151.719 12.384 150.937 9.62577 149.373 7.70945C147.802 5.79312 145.621 4.83496 142.831 4.83496C140.006 4.83496 137.808 5.79312 136.237 7.70945C134.673 9.62577 133.891 12.384 133.891 15.9842C133.891 19.5773 134.673 22.339 136.237 24.2694C137.808 26.1999 140.006 27.1651 142.831 27.1651Z" fill="white"/>
<path d="M185.143 27.0382C185.713 27.5807 185.999 28.1971 185.999 28.8876C185.999 29.5498 185.749 30.1346 185.249 30.6418C184.741 31.1421 184.142 31.3922 183.452 31.3922C182.733 31.3922 182.071 31.0927 181.465 30.4939L167.093 17.0197V28.6762C167.093 29.5076 166.839 30.1839 166.332 30.7053C165.832 31.2266 165.148 31.4873 164.282 31.4873C163.45 31.4873 162.781 31.2266 162.274 30.7053C161.774 30.1839 161.523 29.5076 161.523 28.6762V3.32367C161.523 2.49232 161.774 1.82302 162.274 1.31576C162.781 0.815539 163.45 0.56543 164.282 0.56543C165.148 0.56543 165.832 0.815539 166.332 1.31576C166.839 1.82302 167.093 2.49232 167.093 3.32367V14.42L180.99 1.37916C181.511 0.864856 182.103 0.607703 182.765 0.607703C183.427 0.607703 184.009 0.85781 184.509 1.35803C185.016 1.86529 185.27 2.45005 185.27 3.11231C185.27 3.77457 184.981 4.37694 184.403 4.91943L172.789 15.5508L185.143 27.0382Z" fill="#333333"/>
</svg>
