<svg width="42" height="50" viewBox="0 0 42 50" fill="none" xmlns="http://www.w3.org/2000/svg">
<path d="M38.3973 8.18037C34.9807 3.19393 29.239 0.665527 21.3311 0.665527C13.4231 0.665527 7.6808 3.19393 4.2642 8.18037C-3.88065 20.0665 4.28356 41.5357 4.63536 42.4432C4.82772 42.9403 5.30603 43.2682 5.83921 43.2682H13.5851C13.5897 43.2682 13.5935 43.2682 13.5981 43.2682C14.3107 43.2682 14.889 42.6898 14.889 41.9772C14.889 41.7616 14.8361 41.5582 14.7425 41.3794C14.1119 39.585 8.3547 22.593 13.5806 15.1091C15.2118 12.7744 17.7466 11.6389 21.3311 11.6389C24.9155 11.6389 27.4504 12.7744 29.0815 15.1091C34.5753 22.9758 27.9332 41.3472 27.8654 41.5318C27.7202 41.9275 27.7776 42.3703 28.019 42.7156C28.2598 43.0622 28.6555 43.2682 29.077 43.2682H36.8229C37.3561 43.2682 37.8344 42.9403 38.0268 42.4432C38.3786 41.535 46.5428 20.0665 38.3973 8.18037ZM6.74613 40.6862C6.40014 39.6915 5.79983 37.8596 5.19371 35.5222H10.3519C10.8573 37.6511 11.3918 39.4546 11.7855 40.6862H6.74613ZM31.2 13.6329C29.0802 10.5965 25.7598 9.05696 21.3311 9.05696C16.9023 9.05696 13.5819 10.5965 11.4621 13.6329C8.00226 18.5903 8.55545 26.6157 9.79222 32.9403H4.57662C3.02356 25.863 2.04241 15.9863 6.39627 9.63596C9.30293 5.397 14.3275 3.24751 21.3311 3.24751C28.3347 3.24751 33.3592 5.397 36.2659 9.63596C40.6191 15.9863 39.6373 25.863 38.0849 32.9403H32.8699C34.1067 26.6157 34.6599 18.5903 31.2 13.6329ZM35.9167 40.6862H30.8766C31.2704 39.4546 31.8049 37.6511 32.3103 35.5222H37.4684C36.8623 37.8596 36.262 39.6915 35.9167 40.6862Z" fill="#0060FB"/>
<path d="M24.7203 34.5135C24.1633 34.0682 23.3513 34.1579 22.9059 34.7156L17.7419 41.1705C17.4321 41.5578 17.3714 42.0891 17.5863 42.5357C17.8006 42.9837 18.2531 43.2677 18.7495 43.2677H21.2276L17.7419 47.6255C17.2965 48.1819 17.3869 48.9946 17.9433 49.44C18.1808 49.6297 18.4662 49.7227 18.7489 49.7227C19.1278 49.7227 19.5028 49.5568 19.7578 49.2379L24.9217 42.783C25.2316 42.3957 25.2923 41.8644 25.0773 41.4178C24.8624 40.9698 24.4099 40.6858 23.9135 40.6858H21.4354L24.9211 36.328C25.3671 35.7716 25.2768 34.9589 24.7203 34.5135Z" fill="#0060FB"/>
</svg>
