<svg width="186" height="56" viewBox="0 0 186 56" fill="none" xmlns="http://www.w3.org/2000/svg">
<g clip-path="url(#clip0_11411_1834)">
<g clip-path="url(#clip1_11411_1834)">
<path d="M43.2123 9.21106C39.2998 3.50086 32.7247 0.605469 23.669 0.605469C14.6132 0.605469 8.03743 3.50086 4.12492 9.21106C-5.20212 22.8224 4.14709 47.4077 4.54995 48.447C4.77023 49.0162 5.31796 49.3917 5.92853 49.3917H14.7988C14.8039 49.3917 14.8084 49.3917 14.8135 49.3917C15.6296 49.3917 16.2919 48.7294 16.2919 47.9133C16.2919 47.6664 16.2313 47.4336 16.1241 47.2288C15.4019 45.1739 8.80914 25.7156 14.7936 17.1455C16.6615 14.4718 19.5643 13.1716 23.669 13.1716C27.7737 13.1716 30.6765 14.4718 32.5444 17.1455C38.8356 26.1539 31.2294 47.1919 31.1518 47.4033C30.9854 47.8564 31.0512 48.3635 31.3277 48.759C31.6034 49.1559 32.0565 49.3917 32.5392 49.3917H41.4094C42.02 49.3917 42.5677 49.0162 42.788 48.447C43.1909 47.407 52.5401 22.8224 43.2123 9.21106ZM6.96709 46.435C6.57088 45.2959 5.88344 43.1981 5.18934 40.5215H11.0962C11.675 42.9593 12.287 45.0246 12.7379 46.435H6.96709ZM34.9704 15.455C32.5429 11.9778 28.7405 10.2149 23.669 10.2149C18.5974 10.2149 14.7951 11.9778 12.3676 15.455C8.40554 21.1319 9.03902 30.3222 10.4553 37.5647H4.48268C2.7042 29.4603 1.58064 18.15 6.56645 10.8779C9.895 6.0237 15.6488 3.56221 23.669 3.56221C31.6891 3.56221 37.443 6.0237 40.7715 10.8779C45.7566 18.15 44.6323 29.4603 42.8545 37.5647H36.8827C38.2989 30.3222 38.9324 21.1319 34.9704 15.455ZM40.3716 46.435H34.6001C35.051 45.0246 35.663 42.9593 36.2418 40.5215H42.1486C41.4545 43.1981 40.7671 45.2959 40.3716 46.435Z" fill="white"/>
<path d="M27.5497 39.3671C26.9118 38.8571 25.9819 38.9598 25.4718 39.5985L19.5584 46.9903C19.2036 47.4339 19.1341 48.0422 19.3802 48.5537C19.6256 49.0667 20.1438 49.392 20.7122 49.392H23.55L19.5584 54.3822C19.0483 55.0194 19.1518 55.95 19.789 56.46C20.061 56.6774 20.3877 56.7838 20.7115 56.7838C21.1454 56.7838 21.5749 56.5938 21.8668 56.2287L27.7803 48.8368C28.1351 48.3933 28.2046 47.785 27.9585 47.2735C27.7123 46.7605 27.1941 46.4352 26.6257 46.4352H23.788L27.7796 41.445C28.2904 40.8078 28.1869 39.8772 27.5497 39.3671Z" fill="white"/>
</g>
</g>
<path d="M59.7401 22.1098V33.7298H55.7116V22.1098H52.0674V18.813H63.3769V22.1098H59.7401ZM76.5122 33.7298H73.5038L73.0011 32.2883H72.772C72.4369 32.8206 71.9712 33.2271 71.3749 33.508C70.7836 33.7938 70.0863 33.9367 69.283 33.9367C68.0116 33.9367 67.0211 33.5671 66.3115 32.8279C65.6068 32.0888 65.2545 31.0465 65.2545 29.7012V22.1689H69.2387V28.4889C69.2387 29.2429 69.3471 29.8121 69.5639 30.1964C69.7758 30.5857 70.1281 30.7804 70.6209 30.7804C71.3059 30.7804 71.7938 30.5094 72.0845 29.9673C72.3802 29.4302 72.528 28.5185 72.528 27.2323V22.1689H76.5122V33.7298ZM86.3286 21.9693C87.5852 21.9693 88.5831 22.4966 89.3223 23.5512C90.0615 24.6057 90.4311 26.0644 90.4311 27.9271C90.4311 29.8047 90.059 31.2757 89.3149 32.3401C88.5708 33.4045 87.5335 33.9367 86.203 33.9367C85.7742 33.9367 85.3948 33.8899 85.0646 33.7963C84.7295 33.7026 84.4314 33.5745 84.1702 33.4119C83.909 33.2493 83.606 32.9782 83.261 32.5988H83.0097L82.3814 33.7298H79.2694V17.8521H83.261V21.4445C83.261 21.8732 83.2117 22.6124 83.1132 23.662H83.261C83.6454 23.0608 84.0914 22.6297 84.5989 22.3685C85.1065 22.1024 85.6831 21.9693 86.3286 21.9693ZM84.8724 25.0961C84.3106 25.0961 83.9016 25.2907 83.6454 25.68C83.3891 26.0693 83.261 26.6779 83.261 27.5058V28.0676C83.261 29.0137 83.3891 29.6913 83.6454 30.1004C83.9016 30.5143 84.323 30.7213 84.9094 30.7213C85.3775 30.7213 85.7373 30.4823 85.9886 30.0043C86.2399 29.5213 86.3656 28.8142 86.3656 27.8828C86.3656 26.025 85.8679 25.0961 84.8724 25.0961ZM98.2813 33.9367C96.3594 33.9367 94.8662 33.4242 93.8018 32.3992C92.7374 31.3742 92.2052 29.9156 92.2052 28.0232C92.2052 26.0718 92.6979 24.5762 93.6835 23.5364C94.6691 22.4917 96.076 21.9693 97.9043 21.9693C99.6487 21.9693 100.994 22.4227 101.94 23.3294C102.891 24.2361 103.367 25.5445 103.367 27.2545V29.0285H96.2337C96.2633 29.6741 96.4998 30.1792 96.9433 30.5439C97.3868 30.9135 97.993 31.0983 98.7617 31.0983C99.4664 31.0983 100.112 31.0317 100.698 30.8987C101.285 30.7656 101.923 30.5389 102.613 30.2186V33.0867C101.987 33.407 101.339 33.6287 100.669 33.7519C100.004 33.8751 99.2077 33.9367 98.2813 33.9367ZM98.0521 24.6821C97.584 24.6821 97.1897 24.83 96.8694 25.1256C96.554 25.4213 96.3692 25.8845 96.315 26.5153H99.7448C99.7301 25.9584 99.5724 25.5125 99.2718 25.1774C98.9662 24.8472 98.5597 24.6821 98.0521 24.6821ZM116.192 33.7298H112.355L109.303 22.9894H109.214C109.357 24.8176 109.428 26.2393 109.428 27.2545V33.7298H105.858V18.813H111.224L114.329 29.4055H114.418L117.463 18.813H122.844V33.7298H119.141V27.188C119.141 26.8479 119.146 26.471 119.156 26.057C119.166 25.6431 119.21 24.6255 119.289 23.0042H119.2L116.192 33.7298ZM136.12 33.7298H133.356L132.594 32.1996H132.513C131.976 32.8649 131.429 33.3207 130.872 33.5671C130.315 33.8135 129.593 33.9367 128.706 33.9367C127.617 33.9367 126.76 33.609 126.134 32.9536C125.508 32.3031 125.195 31.3841 125.195 30.1964C125.195 28.9694 125.624 28.0553 126.481 27.4541C127.339 26.8479 128.58 26.5079 130.207 26.434L132.136 26.3749V26.2122C132.136 25.2612 131.665 24.7856 130.724 24.7856C129.881 24.7856 128.812 25.0714 127.516 25.6431L126.363 23.0042C127.708 22.3143 129.408 21.9693 131.463 21.9693C132.947 21.9693 134.095 22.3364 134.908 23.0707C135.716 23.805 136.12 24.8324 136.12 26.1531V33.7298ZM130.399 31.1204C130.882 31.1204 131.296 30.9677 131.641 30.6621C131.986 30.3517 132.158 29.9525 132.158 29.4647V28.5702L131.234 28.6072C129.923 28.6565 129.268 29.1394 129.268 30.056C129.268 30.7656 129.645 31.1204 130.399 31.1204ZM145.715 22.1689H149.743V24.0982L148.161 24.6821C148.378 25.0764 148.487 25.5346 148.487 26.057C148.487 27.3038 148.051 28.2696 147.178 28.9546C146.306 29.6396 145.003 29.9821 143.268 29.9821C142.839 29.9821 142.499 29.955 142.248 29.9008C142.149 30.0782 142.1 30.2457 142.1 30.4034C142.1 30.6005 142.26 30.7508 142.581 30.8543C142.901 30.9627 143.32 31.0169 143.837 31.0169H145.752C148.344 31.0169 149.64 32.1085 149.64 34.2915C149.64 35.7009 149.041 36.7949 147.844 37.5735C146.641 38.3571 144.956 38.7488 142.788 38.7488C141.147 38.7488 139.883 38.4753 138.996 37.9283C138.109 37.3813 137.665 36.5929 137.665 35.5629C137.665 34.1831 138.523 33.2936 140.237 32.8945C139.883 32.7417 139.575 32.5002 139.313 32.1701C139.052 31.835 138.922 31.5048 138.922 31.1796C138.922 30.8198 139.02 30.502 139.217 30.226C139.414 29.9501 139.826 29.6223 140.452 29.2429C139.851 28.9768 139.38 28.5604 139.04 27.9937C138.695 27.4319 138.523 26.7469 138.523 25.9387C138.523 24.6772 138.951 23.699 139.809 23.0042C140.666 22.3143 141.891 21.9693 143.482 21.9693C143.689 21.9693 144.052 21.9915 144.569 22.0358C145.086 22.0851 145.468 22.1295 145.715 22.1689ZM141.028 35.1712C141.028 35.4964 141.206 35.76 141.561 35.9621C141.915 36.1592 142.388 36.2578 142.98 36.2578C143.946 36.2578 144.719 36.137 145.301 35.8956C145.882 35.6541 146.173 35.3436 146.173 34.9642C146.173 34.6587 145.996 34.4418 145.641 34.3137C145.286 34.1905 144.781 34.1289 144.126 34.1289H142.558C142.13 34.1289 141.768 34.2299 141.472 34.432C141.176 34.6291 141.028 34.8755 141.028 35.1712ZM142.285 25.9535C142.285 27.1362 142.696 27.7276 143.519 27.7276C143.899 27.7276 144.192 27.5822 144.399 27.2914C144.611 27.0007 144.717 26.5621 144.717 25.9757C144.717 24.7782 144.318 24.1795 143.519 24.1795C142.696 24.1795 142.285 24.7708 142.285 25.9535ZM162.783 33.7298H158.791V27.4245C158.791 26.6557 158.68 26.0767 158.458 25.6874C158.237 25.2932 157.882 25.0961 157.394 25.0961C156.719 25.0961 156.233 25.3646 155.938 25.9018C155.637 26.4389 155.487 27.3604 155.487 28.6663V33.7298H151.495V22.1689H154.511L155.006 23.6029H155.243C155.583 23.0559 156.054 22.6469 156.655 22.3759C157.256 22.1048 157.948 21.9693 158.732 21.9693C160.008 21.9693 161.004 22.3389 161.718 23.0781C162.428 23.8222 162.783 24.8669 162.783 26.2122V33.7298ZM171.076 33.9367C169.149 33.9367 167.654 33.4242 166.589 32.3992C165.525 31.3742 164.993 29.9156 164.993 28.0232C164.993 26.0718 165.486 24.5762 166.471 23.5364C167.462 22.4917 168.871 21.9693 170.699 21.9693C172.439 21.9693 173.784 22.4227 174.735 23.3294C175.681 24.2361 176.154 25.5445 176.154 27.2545V29.0285H169.029C169.053 29.6741 169.287 30.1792 169.731 30.5439C170.179 30.9135 170.788 31.0983 171.557 31.0983C172.256 31.0983 172.9 31.0317 173.486 30.8987C174.077 30.7656 174.715 30.5389 175.4 30.2186V33.0867C174.775 33.407 174.129 33.6287 173.464 33.7519C172.799 33.8751 172.003 33.9367 171.076 33.9367ZM170.84 24.6821C170.372 24.6821 169.98 24.83 169.664 25.1256C169.349 25.4213 169.164 25.8845 169.11 26.5153H172.532C172.523 25.9584 172.365 25.5125 172.059 25.1774C171.759 24.8472 171.352 24.6821 170.84 24.6821ZM184.071 30.7804C184.608 30.7804 185.251 30.6473 186 30.3812V33.2936C185.463 33.5252 184.951 33.6903 184.463 33.7889C183.98 33.8874 183.411 33.9367 182.755 33.9367C181.415 33.9367 180.449 33.6066 179.858 32.9462C179.266 32.2908 178.971 31.283 178.971 29.9229V25.1626H177.574V23.5364L179.348 22.2798L180.383 19.8552H182.992V22.1689H185.83V25.1626H182.992V29.6568C182.992 30.4059 183.352 30.7804 184.071 30.7804Z" fill="white"/>
<defs>
<clipPath id="clip0_11411_1834">
<rect width="47.3534" height="55.3899" fill="white" transform="translate(0 0.605469)"/>
</clipPath>
<clipPath id="clip1_11411_1834">
<rect width="47.3377" height="56.1781" fill="white" transform="translate(0 0.605469)"/>
</clipPath>
</defs>
</svg>
