<svg width="48" height="56" viewBox="0 0 48 56" fill="none" xmlns="http://www.w3.org/2000/svg">
<g clip-path="url(#clip0_11302_42)">
<g clip-path="url(#clip1_11302_42)">
<path d="M43.2123 8.91077C39.2998 3.20056 32.7247 0.305176 23.669 0.305176C14.6132 0.305176 8.03743 3.20056 4.12492 8.91077C-5.20212 22.5221 4.14709 47.1074 4.54995 48.1467C4.77023 48.7159 5.31796 49.0914 5.92853 49.0914H14.7988C14.8039 49.0914 14.8084 49.0914 14.8135 49.0914C15.6296 49.0914 16.2919 48.4291 16.2919 47.613C16.2919 47.3661 16.2313 47.1333 16.1241 46.9286C15.4019 44.8736 8.80914 25.4153 14.7936 16.8452C16.6615 14.1716 19.5643 12.8713 23.669 12.8713C27.7737 12.8713 30.6765 14.1716 32.5444 16.8452C38.8356 25.8536 31.2294 46.8916 31.1518 47.103C30.9854 47.5561 31.0512 48.0632 31.3277 48.4587C31.6034 48.8556 32.0565 49.0914 32.5392 49.0914H41.4094C42.02 49.0914 42.5677 48.7159 42.788 48.1467C43.1909 47.1067 52.5401 22.5221 43.2123 8.91077ZM6.96709 46.1347C6.57088 44.9956 5.88344 42.8978 5.18934 40.2212H11.0962C11.675 42.659 12.287 44.7243 12.7379 46.1347H6.96709ZM34.9704 15.1547C32.5429 11.6775 28.7405 9.91459 23.669 9.91459C18.5974 9.91459 14.7951 11.6775 12.3676 15.1547C8.40554 20.8316 9.03902 30.0219 10.4553 37.2644H4.48268C2.7042 29.16 1.58064 17.8497 6.56645 10.5776C9.895 5.7234 15.6488 3.26192 23.669 3.26192C31.6891 3.26192 37.443 5.7234 40.7715 10.5776C45.7566 17.8497 44.6323 29.16 42.8545 37.2644H36.8827C38.2989 30.0219 38.9324 20.8316 34.9704 15.1547ZM40.3716 46.1347H34.6001C35.051 44.7243 35.663 42.659 36.2418 40.2212H42.1486C41.4545 42.8978 40.7671 44.9956 40.3716 46.1347Z" fill="#0060FB"/>
<path d="M27.5497 39.0668C26.9118 38.5568 25.9819 38.6595 25.4718 39.2982L19.5584 46.6901C19.2036 47.1336 19.1341 47.7419 19.3802 48.2534C19.6256 48.7664 20.1438 49.0917 20.7122 49.0917H23.55L19.5584 54.0819C19.0483 54.7191 19.1518 55.6497 19.789 56.1598C20.061 56.3771 20.3877 56.4835 20.7115 56.4835C21.1454 56.4835 21.5749 56.2936 21.8668 55.9284L27.7803 48.5365C28.1351 48.093 28.2046 47.4847 27.9585 46.9732C27.7123 46.4602 27.1941 46.1349 26.6257 46.1349H23.788L27.7796 41.1447C28.2904 40.5075 28.1869 39.5769 27.5497 39.0668Z" fill="#0060FB"/>
</g>
</g>
<defs>
<clipPath id="clip0_11302_42">
<rect width="47.3534" height="55.3899" fill="white" transform="translate(0 0.305176)"/>
</clipPath>
<clipPath id="clip1_11302_42">
<rect width="47.3377" height="56.1781" fill="white" transform="translate(0 0.305176)"/>
</clipPath>
</defs>
</svg>
