<svg width="186" height="51" viewBox="0 0 186 51" fill="none" xmlns="http://www.w3.org/2000/svg">
<g clip-path="url(#clip0_11341_12816)">
<path d="M43.635 25.3821L24.7747 44.1742L5.91602 25.3154L24.7763 6.52344L43.635 25.3821ZM7.75605 25.3171L24.7763 42.3373L38.2461 28.9164L35.5977 26.268L24.7755 37.0902L13.068 25.3827L24.7741 13.606L35.5976 24.4295L38.2208 21.8063L24.7746 8.36022L7.75605 25.3171ZM14.9036 25.3799L24.7754 35.2517L34.6784 25.3488L24.7769 15.4472L14.9036 25.3799ZM36.5169 25.3488L39.167 27.9988L41.7949 25.3805L39.1401 22.7257L36.5169 25.3488Z" fill="#FCFCFC"/>
</g>
<path d="M55.1808 18.8398C56.6368 18.8398 57.7829 19.1561 58.6192 19.7887C59.4555 20.4214 59.8737 21.2967 59.8737 22.4146C59.8737 23.2293 59.6418 23.9183 59.1782 24.4816C58.7145 25.0449 58.0819 25.4219 57.2802 25.6126C58.2725 25.7642 59.0525 26.1629 59.6202 26.8085C60.1835 27.4542 60.4651 28.2601 60.4651 29.2264C60.4651 30.4484 60.0058 31.4039 59.0872 32.0929C58.1685 32.7775 56.9011 33.1198 55.2848 33.1198H49.084V18.8398H55.1808ZM55.0768 24.8976C55.9608 24.8976 56.6454 24.7112 57.1307 24.3386C57.6117 23.9659 57.8522 23.433 57.8522 22.7396C57.8522 22.0593 57.6117 21.535 57.1307 21.1667C56.6454 20.7984 55.9608 20.6207 55.0768 20.6337H51.0404V24.8976H55.0768ZM55.0768 31.3259C56.1384 31.3389 56.9682 31.1374 57.5662 30.7214C58.1642 30.3097 58.4632 29.7291 58.4632 28.9795C58.4632 28.2601 58.1642 27.6968 57.5662 27.2895C56.9682 26.8778 56.1384 26.672 55.0768 26.672H51.0404V31.3259H55.0768ZM67.9074 22.2717C68.9821 22.2717 69.9375 22.5013 70.7738 22.9606C71.6101 23.4243 72.2623 24.0678 72.7303 24.8911C73.2026 25.7144 73.4388 26.6547 73.4388 27.712C73.4388 28.7736 73.2026 29.7204 72.7303 30.5524C72.2623 31.38 71.6101 32.0257 70.7738 32.4893C69.9375 32.9487 68.9821 33.1783 67.9074 33.1783C66.8198 33.1783 65.8578 32.9487 65.0215 32.4893C64.1852 32.0257 63.5331 31.3822 63.0651 30.5589C62.5971 29.7356 62.3631 28.7866 62.3631 27.712C62.3631 26.6547 62.5971 25.7144 63.0651 24.8911C63.5331 24.0678 64.1852 23.4243 65.0215 22.9606C65.8578 22.5013 66.8198 22.2717 67.9074 22.2717ZM67.9074 23.9226C67.2011 23.9226 66.5728 24.0851 66.0225 24.4101C65.4722 24.7351 65.0432 25.1879 64.7355 25.7685C64.4322 26.3449 64.2805 27.0013 64.2805 27.738C64.2805 28.4833 64.4322 29.1484 64.7355 29.7334C65.0432 30.3184 65.4722 30.7712 66.0225 31.0919C66.5728 31.4125 67.2011 31.5729 67.9074 31.5729C68.6007 31.5729 69.2226 31.4125 69.7729 31.0919C70.3232 30.7712 70.7522 30.3184 71.0598 29.7334C71.3675 29.1484 71.5213 28.4833 71.5213 27.738C71.5213 27.0013 71.3675 26.3449 71.0598 25.7685C70.7522 25.1879 70.3232 24.7351 69.7729 24.4101C69.2226 24.0851 68.6007 23.9226 67.9074 23.9226ZM76.1882 33.1198V17.9883H78.0861V33.1198H76.1882ZM90.0588 17.9883H91.9567V33.1198H90.0588V30.9814C89.6514 31.7007 89.1055 32.2532 88.4208 32.6388C87.7318 33.0288 86.9324 33.2238 86.0224 33.2238C85.0041 33.2238 84.1028 32.9877 83.3185 32.5153C82.5385 32.0474 81.9297 31.3952 81.492 30.5589C81.0587 29.7226 80.842 28.7671 80.842 27.6925C80.842 26.6352 81.0587 25.6949 81.492 24.8716C81.9297 24.0483 82.5385 23.4048 83.3185 22.9411C84.1028 22.4775 84.9976 22.2457 86.0029 22.2457C86.9259 22.2457 87.734 22.4363 88.4273 22.8176C89.1206 23.199 89.6644 23.7493 90.0588 24.4686V17.9883ZM86.4059 31.5924C87.1165 31.5924 87.747 31.4277 88.2973 31.0984C88.8476 30.7734 89.2788 30.3184 89.5908 29.7334C89.9028 29.1484 90.0588 28.4898 90.0588 27.7575C90.0588 27.0078 89.9028 26.3405 89.5908 25.7555C89.2788 25.1706 88.8476 24.7156 88.2973 24.3906C87.747 24.0656 87.1165 23.9031 86.4059 23.9031C85.6996 23.9031 85.0712 24.0678 84.5209 24.3971C83.9706 24.7307 83.5395 25.1901 83.2275 25.775C82.9155 26.36 82.7595 27.0208 82.7595 27.7575C82.7595 28.4898 82.9155 29.1484 83.2275 29.7334C83.5395 30.3184 83.9706 30.7734 84.5209 31.0984C85.0712 31.4277 85.6996 31.5924 86.4059 31.5924ZM100.094 22.2717C101.767 22.2717 103.032 22.7635 103.89 23.7471C104.748 24.7351 105.177 26.1044 105.177 27.855C105.177 28.128 105.169 28.3338 105.151 28.4725H96.6301C96.7774 29.4344 97.1804 30.2014 97.839 30.7734C98.502 31.3454 99.3145 31.6314 100.276 31.6314C100.918 31.6314 101.514 31.5165 102.064 31.2869C102.614 31.0529 103.093 30.7257 103.5 30.3054L104.54 31.3844C104.012 31.9564 103.373 32.3984 102.623 32.7103C101.878 33.0223 101.048 33.1783 100.133 33.1783C99.0762 33.1783 98.1359 32.9508 97.3125 32.4958C96.4892 32.0409 95.8501 31.3995 95.3951 30.5719C94.9401 29.7399 94.7126 28.7953 94.7126 27.738C94.7126 26.6764 94.9401 25.7339 95.3951 24.9106C95.8501 24.0873 96.4849 23.4416 97.2995 22.9736C98.1185 22.5056 99.0502 22.2717 100.094 22.2717ZM96.6106 27.0035H103.461C103.405 26.0242 103.078 25.2507 102.48 24.6831C101.882 24.1198 101.093 23.8381 100.114 23.8381C99.165 23.8381 98.3742 24.1241 97.7415 24.6961C97.1089 25.2681 96.7319 26.0372 96.6106 27.0035ZM109.662 24.6571C110.013 23.8814 110.516 23.2921 111.17 22.8891C111.824 22.4905 112.6 22.2847 113.497 22.2717V24.1046C112.396 24.0656 111.506 24.3516 110.826 24.9626C110.145 25.5736 109.758 26.3947 109.662 27.426V33.1198H107.764V22.3302H109.662V24.6571ZM121.836 18.8398C123.292 18.8398 124.438 19.1561 125.275 19.7887C126.111 20.4214 126.529 21.2967 126.529 22.4146C126.529 23.2293 126.297 23.9183 125.834 24.4816C125.374 25.0449 124.744 25.4219 123.942 25.6126C124.935 25.7642 125.712 26.1629 126.276 26.8085C126.839 27.4542 127.121 28.2601 127.121 29.2264C127.121 30.4484 126.661 31.4039 125.743 32.0929C124.824 32.7775 123.557 33.1198 121.94 33.1198H115.739V18.8398H121.836ZM121.739 24.8976C122.623 24.8976 123.305 24.7112 123.786 24.3386C124.267 23.9659 124.508 23.433 124.508 22.7396C124.508 22.0593 124.267 21.535 123.786 21.1667C123.305 20.7984 122.623 20.6207 121.739 20.6337H117.696V24.8976H121.739ZM121.739 31.3259C122.796 31.3389 123.624 31.1374 124.222 30.7214C124.824 30.3097 125.125 29.7291 125.125 28.9795C125.125 28.2601 124.824 27.6968 124.222 27.2895C123.624 26.8778 122.796 26.672 121.739 26.672H117.696V31.3259H121.739ZM134.563 22.2717C135.638 22.2717 136.593 22.5013 137.429 22.9606C138.266 23.4243 138.92 24.0678 139.392 24.8911C139.86 25.7144 140.094 26.6547 140.094 27.712C140.094 28.7736 139.86 29.7204 139.392 30.5524C138.92 31.38 138.266 32.0257 137.429 32.4893C136.593 32.9487 135.638 33.1783 134.563 33.1783C133.475 33.1783 132.513 32.9487 131.677 32.4893C130.841 32.0257 130.189 31.3822 129.721 30.5589C129.253 29.7356 129.019 28.7866 129.019 27.712C129.019 26.6547 129.253 25.7144 129.721 24.8911C130.189 24.0678 130.841 23.4243 131.677 22.9606C132.513 22.5013 133.475 22.2717 134.563 22.2717ZM134.563 23.9226C133.857 23.9226 133.228 24.0851 132.678 24.4101C132.128 24.7351 131.701 25.1879 131.398 25.7685C131.09 26.3449 130.936 27.0013 130.936 27.738C130.936 28.4833 131.09 29.1484 131.398 29.7334C131.701 30.3184 132.128 30.7712 132.678 31.0919C133.228 31.4125 133.857 31.5729 134.563 31.5729C135.261 31.5729 135.885 31.4125 136.435 31.0919C136.985 30.7712 137.412 30.3184 137.715 29.7334C138.023 29.1484 138.177 28.4833 138.177 27.738C138.177 27.0013 138.023 26.3449 137.715 25.7685C137.412 25.1879 136.985 24.7351 136.435 24.4101C135.885 24.0851 135.261 23.9226 134.563 23.9226ZM147.231 22.2717C148.306 22.2717 149.261 22.5013 150.097 22.9606C150.934 23.4243 151.586 24.0678 152.054 24.8911C152.526 25.7144 152.762 26.6547 152.762 27.712C152.762 28.7736 152.526 29.7204 152.054 30.5524C151.586 31.38 150.934 32.0257 150.097 32.4893C149.261 32.9487 148.306 33.1783 147.231 33.1783C146.143 33.1783 145.181 32.9487 144.345 32.4893C143.509 32.0257 142.857 31.3822 142.389 30.5589C141.921 29.7356 141.687 28.7866 141.687 27.712C141.687 26.6547 141.921 25.7144 142.389 24.8911C142.857 24.0678 143.509 23.4243 144.345 22.9606C145.181 22.5013 146.143 22.2717 147.231 22.2717ZM147.231 23.9226C146.525 23.9226 145.896 24.0851 145.346 24.4101C144.796 24.7351 144.367 25.1879 144.059 25.7685C143.756 26.3449 143.604 27.0013 143.604 27.738C143.604 28.4833 143.756 29.1484 144.059 29.7334C144.367 30.3184 144.796 30.7712 145.346 31.0919C145.896 31.4125 146.525 31.5729 147.231 31.5729C147.924 31.5729 148.546 31.4125 149.096 31.0919C149.647 30.7712 150.076 30.3184 150.383 29.7334C150.691 29.1484 150.845 28.4833 150.845 27.738C150.845 27.0013 150.691 26.3449 150.383 25.7685C150.076 25.1879 149.647 24.7351 149.096 24.4101C148.546 24.0851 147.924 23.9226 147.231 23.9226ZM165.242 33.1198H162.961L159.509 27.881L157.41 30.0584V33.1198H155.512V17.9883H157.41V27.634L162.629 22.3302H164.859L160.835 26.5095L165.242 33.1198Z" fill="#FCFCFC"/>
<defs>
<clipPath id="clip0_11341_12816">
<rect width="38.4789" height="38.4139" fill="white" transform="translate(5.53516 6.1416)"/>
</clipPath>
</defs>
</svg>
