<svg width="42" height="44" viewBox="0 0 42 44" fill="none" xmlns="http://www.w3.org/2000/svg">
<path d="M17.6533 12.4564L7.70589 1.4564C7.29145 0.998144 6.78487 0.631688 6.21898 0.380792C5.6531 0.129896 5.04055 0.000161803 4.42105 0C3.24852 0 2.124 0.46357 1.2949 1.28873C0.465788 2.11389 0 3.23305 0 4.4C0.000318398 5.48721 0.405069 6.5358 1.13621 7.3436L11.0836 18.3436C11.498 18.8019 12.0046 19.1683 12.5705 19.4192C13.1364 19.6701 13.7489 19.7998 14.3684 19.8C15.541 19.8 16.6655 19.3364 17.4946 18.5113C18.3237 17.6861 18.7895 16.567 18.7895 15.4C18.7892 14.3128 18.3844 13.2642 17.6533 12.4564ZM24.3467 12.4564L34.2941 1.4564C34.7085 0.998144 35.2151 0.631688 35.781 0.380792C36.3469 0.129896 36.9594 0.000161803 37.5789 0C38.7515 0 39.876 0.46357 40.7051 1.28873C41.5342 2.11389 42 3.23305 42 4.4C41.9997 5.48721 41.5949 6.5358 40.8638 7.3436L30.9164 18.3436C30.502 18.8019 29.9954 19.1683 29.4295 19.4192C28.8636 19.6701 28.2511 19.7998 27.6316 19.8C26.459 19.8 25.3345 19.3364 24.5054 18.5113C23.6763 17.6861 23.2105 16.567 23.2105 15.4C23.2108 14.3128 23.6156 13.2642 24.3467 12.4564ZM17.6533 31.5436L7.70589 42.5436C7.29145 43.0019 6.78487 43.3683 6.21898 43.6192C5.6531 43.8701 5.04055 43.9998 4.42105 44C3.24852 44 2.124 43.5364 1.2949 42.7113C0.465788 41.8861 0 40.767 0 39.6C0.000318398 38.5128 0.405069 37.4642 1.13621 36.6564L11.0836 25.6564C11.498 25.1981 12.0046 24.8317 12.5705 24.5808C13.1364 24.3299 13.7489 24.2002 14.3684 24.2C15.541 24.2 16.6655 24.6636 17.4946 25.4887C18.3237 26.3139 18.7895 27.433 18.7895 28.6C18.7892 29.6872 18.3844 30.7358 17.6533 31.5436ZM24.3467 31.5436L34.2941 42.5436C34.7085 43.0019 35.2151 43.3683 35.781 43.6192C36.3469 43.8701 36.9594 43.9998 37.5789 44C38.7515 44 39.876 43.5364 40.7051 42.7113C41.5342 41.8861 42 40.767 42 39.6C41.9997 38.5128 41.5949 37.4642 40.8638 36.6564L30.9164 25.6564C30.502 25.1981 29.9954 24.8317 29.4295 24.5808C28.8636 24.3299 28.2511 24.2002 27.6316 24.2C26.459 24.2 25.3345 24.6636 24.5054 25.4887C23.6763 26.3139 23.2105 27.433 23.2105 28.6C23.2108 29.6872 23.6156 30.7358 24.3467 31.5436Z" fill="#333333"/>
</svg>
