<svg width="186" height="27" viewBox="0 0 186 27" fill="none" xmlns="http://www.w3.org/2000/svg">
<g clip-path="url(#clip0_11341_26152)">
<g clip-path="url(#clip1_11341_26152)">
<path d="M10.4582 7.98242L4.55634 1.41365C4.31045 1.14 4.00989 0.921164 3.67415 0.771339C3.3384 0.621514 2.97497 0.544042 2.60742 0.543945C1.91175 0.543945 1.24456 0.820771 0.752647 1.31352C0.260731 1.80628 -0.015625 2.47459 -0.015625 3.17145C-0.0154361 3.82069 0.224706 4.44687 0.658498 4.92925L6.56035 11.498C6.80624 11.7717 7.1068 11.9905 7.44255 12.1403C7.77829 12.2902 8.14172 12.3676 8.50927 12.3677C9.20495 12.3677 9.87213 12.0909 10.364 11.5981C10.856 11.1054 11.1323 10.4371 11.1323 9.74022C11.1321 9.09098 10.892 8.4648 10.4582 7.98242ZM14.4295 7.98242L20.3313 1.41365C20.5772 1.14 20.8778 0.921164 21.2135 0.771339C21.5493 0.621514 21.9127 0.544042 22.2803 0.543945C22.9759 0.543945 23.6431 0.820771 24.135 1.31352C24.627 1.80628 24.9033 2.47459 24.9033 3.17145C24.9031 3.82069 24.663 4.44687 24.2292 4.92925L18.3273 11.498C18.0814 11.7717 17.7809 11.9905 17.4451 12.1403C17.1094 12.2902 16.746 12.3676 16.3784 12.3677C15.6827 12.3677 15.0156 12.0909 14.5236 11.5981C14.0317 11.1054 13.7554 10.4371 13.7554 9.74022C13.7556 9.09098 13.9957 8.4648 14.4295 7.98242ZM10.4582 19.3805L4.55634 25.9493C4.31045 26.223 4.00989 26.4418 3.67415 26.5916C3.3384 26.7414 2.97497 26.8189 2.60742 26.819C1.91175 26.819 1.24456 26.5422 0.752647 26.0494C0.260731 25.5567 -0.015625 24.8884 -0.015625 24.1915C-0.0154361 23.5423 0.224706 22.9161 0.658498 22.4337L6.56035 15.8649C6.80624 15.5913 7.1068 15.3725 7.44255 15.2226C7.77829 15.0728 8.14172 14.9953 8.50927 14.9952C9.20495 14.9952 9.87213 15.2721 10.364 15.7648C10.856 16.2576 11.1323 16.9259 11.1323 17.6227C11.1321 18.272 10.892 18.8982 10.4582 19.3805ZM14.4295 19.3805L20.3313 25.9493C20.5772 26.223 20.8778 26.4418 21.2135 26.5916C21.5493 26.7414 21.9127 26.8189 22.2803 26.819C22.9759 26.819 23.6431 26.5422 24.135 26.0494C24.627 25.5567 24.9033 24.8884 24.9033 24.1915C24.9031 23.5423 24.663 22.9161 24.2292 22.4337L18.3273 15.8649C18.0814 15.5913 17.7809 15.3725 17.4451 15.2226C17.1094 15.0728 16.746 14.9953 16.3784 14.9952C15.6827 14.9952 15.0156 15.2721 14.5236 15.7648C14.0317 16.2576 13.7554 16.9259 13.7554 17.6227C13.7556 18.272 13.9957 18.8982 14.4295 19.3805Z" fill="white"/>
</g>
</g>
<path d="M39.0558 6.0554C36.8787 6.0554 35.2139 6.73278 34.0613 8.08756C32.9155 9.44234 32.3426 11.3195 32.3426 13.719C32.3426 14.8581 32.4774 15.9028 32.747 16.8532C33.0233 17.7968 33.4311 18.6056 33.9703 19.2796C34.5096 19.9469 35.1836 20.4693 35.9924 20.8467C36.7945 21.2242 37.7347 21.4129 38.8132 21.4129C39.4804 21.4129 40.0601 21.3893 40.5521 21.3421C41.0374 21.2882 41.425 21.2208 41.7148 21.1399V13.537H45.5567V23.7079C45.031 23.9101 44.1345 24.1325 42.8674 24.3752C41.607 24.6178 40.1545 24.7392 38.5098 24.7392C36.9798 24.7392 35.5846 24.4965 34.3242 24.0112C33.0638 23.5192 31.9887 22.8047 31.099 21.8678C30.2161 20.9377 29.5319 19.7885 29.0466 18.4202C28.5546 17.0587 28.3086 15.4916 28.3086 13.719C28.3086 11.9463 28.5782 10.3792 29.1174 9.0177C29.6566 7.65619 30.3947 6.50025 31.3316 5.54988C32.2684 4.60626 33.3671 3.8918 34.6275 3.40651C35.8879 2.91447 37.2326 2.66846 38.6615 2.66846C39.6388 2.66846 40.5083 2.73586 41.2699 2.87066C42.0316 2.99873 42.6888 3.14364 43.2415 3.3054C43.7874 3.47391 44.239 3.64915 44.5962 3.83114C44.9535 4.01312 45.2028 4.14455 45.3444 4.22544L44.1817 7.36973C43.5751 7.00576 42.8168 6.69571 41.9069 6.43959C41.0037 6.18346 40.0533 6.0554 39.0558 6.0554Z" fill="white"/>
<path d="M55.3665 2.94141C58.4198 2.94141 60.7553 3.50084 62.3729 4.61971C63.9905 5.73858 64.7994 7.45058 64.7994 9.75572C64.7994 12.6203 63.3873 14.5615 60.5632 15.5792C60.9473 16.051 61.3855 16.6206 61.8775 17.2879C62.3628 17.9619 62.8616 18.6898 63.3738 19.4717C63.8793 20.2603 64.3646 21.0657 64.8297 21.888C65.3015 22.7103 65.7194 23.5192 66.0834 24.3145H61.7764C61.3922 23.5798 60.9777 22.8418 60.5328 22.1004C60.0812 21.3589 59.6263 20.6377 59.1679 19.9368C58.7096 19.2358 58.258 18.5719 57.8132 17.945C57.3683 17.3249 56.9504 16.7722 56.5595 16.287C56.2764 16.3072 56.0338 16.3173 55.8316 16.3173C55.6226 16.3173 55.4271 16.3173 55.2452 16.3173H53.3849V24.3145H49.543V3.46714C50.4799 3.25819 51.4774 3.12002 52.5356 3.05262C53.5938 2.97848 54.5374 2.94141 55.3665 2.94141ZM55.6496 6.26768C54.834 6.26768 54.0791 6.29801 53.3849 6.35868V13.2033H55.0632C56.0001 13.2033 56.8257 13.1528 57.5402 13.0517C58.2479 12.9506 58.841 12.7652 59.3196 12.4956C59.7981 12.2327 60.1621 11.8789 60.4115 11.434C60.6542 10.9824 60.7755 10.4129 60.7755 9.72539C60.7755 9.0716 60.6542 8.52227 60.4115 8.07742C60.1621 7.62583 59.8083 7.2686 59.3499 7.00573C58.8916 6.74286 58.349 6.55414 57.7222 6.43956C57.0886 6.32497 56.3977 6.26768 55.6496 6.26768Z" fill="white"/>
<path d="M73.7654 13.719C73.7654 14.8783 73.9069 15.9331 74.19 16.8835C74.4731 17.8271 74.8843 18.6292 75.4235 19.2897C75.9627 19.9503 76.6198 20.4659 77.395 20.8366C78.1701 21.2006 79.0463 21.3826 80.0236 21.3826C80.9807 21.3826 81.8435 21.2006 82.6119 20.8366C83.387 20.4659 84.0442 19.9503 84.5834 19.2897C85.1226 18.6292 85.5337 17.8271 85.8168 16.8835C86.1066 15.9331 86.2516 14.8783 86.2516 13.719C86.2516 12.5597 86.1066 11.5082 85.8168 10.5646C85.5337 9.61421 85.1226 8.80876 84.5834 8.14822C84.0442 7.48768 83.387 6.97543 82.6119 6.61146C81.8435 6.24075 80.9807 6.0554 80.0236 6.0554C79.0463 6.0554 78.1701 6.24075 77.395 6.61146C76.6198 6.97543 75.9627 7.49442 75.4235 8.16844C74.8843 8.83572 74.4731 9.6378 74.19 10.5747C73.9069 11.5116 73.7654 12.5597 73.7654 13.719ZM90.2754 13.719C90.2754 15.5321 90.0058 17.1295 89.4666 18.5112C88.9274 19.8997 88.1961 21.0557 87.2727 21.9791C86.3426 22.9025 85.2574 23.6001 84.0172 24.0719C82.777 24.537 81.4559 24.7695 80.054 24.7695C78.6453 24.7695 77.3175 24.537 76.0705 24.0719C74.8169 23.6001 73.7283 22.9025 72.8049 21.9791C71.8748 21.0557 71.1367 19.8997 70.5908 18.5112C70.0381 17.1295 69.7617 15.5321 69.7617 13.719C69.7617 11.9059 70.0381 10.3152 70.5908 8.94693C71.1367 7.57194 71.8849 6.416 72.8352 5.47911C73.7789 4.54223 74.8708 3.84125 76.111 3.37618C77.3512 2.90436 78.6655 2.66846 80.054 2.66846C81.4357 2.66846 82.7467 2.90436 83.9869 3.37618C85.2271 3.84125 86.3122 4.54223 87.2424 5.47911C88.1658 6.416 88.9038 7.57194 89.4565 8.94693C90.0025 10.3152 90.2754 11.9059 90.2754 13.719Z" fill="white"/>
<path d="M106.051 5.53983H109.347C109.677 6.63848 110.024 7.78431 110.388 8.97732C110.752 10.1636 111.133 11.3532 111.531 12.5462C111.928 13.7393 112.326 14.9087 112.724 16.0545C113.121 17.2071 113.502 18.2922 113.866 19.31C114.176 18.2114 114.473 17.015 114.756 15.7209C115.039 14.4268 115.322 13.0821 115.605 11.6869C115.895 10.2984 116.174 8.87959 116.444 7.43045C116.72 5.98805 116.98 4.56251 117.223 3.15381H121.196C120.481 6.98223 119.686 10.6624 118.81 14.1942C117.94 17.7261 116.966 21.0995 115.888 24.3146H112.218C110.634 20.2031 109.097 15.7141 107.608 10.8477C106.853 13.3146 106.091 15.6568 105.323 17.8744C104.548 20.0919 103.773 22.2386 102.997 24.3146H99.3375C98.2389 21.0995 97.2582 17.7261 96.3954 14.1942C95.526 10.6624 94.734 6.98223 94.0195 3.15381H98.1445C98.3872 4.54228 98.6467 5.95772 98.923 7.40012C99.1994 8.84926 99.4858 10.2681 99.7824 11.6565C100.072 13.0518 100.372 14.3998 100.682 15.7006C100.986 17.0082 101.289 18.2114 101.592 19.31C101.983 18.272 102.377 17.1767 102.775 16.0242C103.166 14.8783 103.557 13.7089 103.948 12.5159C104.332 11.3229 104.703 10.1366 105.06 8.9571C105.417 7.77757 105.747 6.63848 106.051 5.53983Z" fill="white"/>
<path d="M128.201 20.9883H137.725V24.3146H124.359V3.15381H128.201V20.9883Z" fill="white"/>
<path d="M162.117 24.3146H157.972C157.682 23.4788 157.386 22.6531 157.082 21.8376C156.779 21.0288 156.486 20.1963 156.203 19.3403H147.286C147.003 20.1963 146.713 21.0355 146.416 21.8578C146.12 22.6801 145.83 23.499 145.547 24.3146H141.543C142.338 22.0566 143.093 19.9705 143.808 18.0563C144.515 16.1421 145.21 14.329 145.89 12.617C146.578 10.9118 147.255 9.284 147.923 7.73376C148.597 6.19026 149.291 4.66361 150.005 3.15381H153.635C154.349 4.66361 155.04 6.19026 155.707 7.73376C156.381 9.284 157.059 10.9118 157.74 12.617C158.42 14.329 159.121 16.1421 159.843 18.0563C160.57 19.9705 161.329 22.0566 162.117 24.3146ZM151.744 7.24847C151.272 8.3269 150.737 9.64123 150.137 11.1915C149.537 12.735 148.91 14.4133 148.256 16.2264H155.222C154.568 14.4133 153.938 12.7249 153.332 11.1611C152.718 9.59068 152.189 8.28645 151.744 7.24847Z" fill="white"/>
<path d="M172.192 24.5572C171.073 24.5572 169.944 24.5235 168.805 24.4561C167.659 24.3819 166.662 24.2336 165.812 24.0112V3.46714C166.257 3.38626 166.736 3.30874 167.248 3.2346C167.754 3.16046 168.273 3.10317 168.805 3.06273C169.331 3.02229 169.853 2.99196 170.372 2.97174C170.891 2.95152 171.387 2.94141 171.858 2.94141C173.139 2.94141 174.329 3.03914 175.427 3.2346C176.526 3.43007 177.476 3.75023 178.278 4.19508C179.081 4.63993 179.707 5.2297 180.159 5.96438C180.604 6.69905 180.826 7.60561 180.826 8.68404C180.826 9.68158 180.587 10.5376 180.108 11.252C179.63 11.9598 178.966 12.5293 178.117 12.9607C179.397 13.3853 180.341 14.0155 180.948 14.8513C181.561 15.6871 181.868 16.7453 181.868 18.0259C181.868 20.203 181.072 21.8375 179.482 22.9294C177.898 24.0146 175.468 24.5572 172.192 24.5572ZM172.981 14.7906H169.594V21.2309C170.018 21.2713 170.477 21.3016 170.969 21.3219C171.454 21.3421 171.902 21.3522 172.313 21.3522C173.109 21.3522 173.847 21.3016 174.528 21.2005C175.208 21.0994 175.798 20.9208 176.297 20.6647C176.796 20.4086 177.193 20.0682 177.49 19.6436C177.78 19.2189 177.925 18.6696 177.925 17.9956C177.925 16.7958 177.49 15.9601 176.62 15.4882C175.744 15.0232 174.531 14.7906 172.981 14.7906ZM169.594 6.20702V11.7677H172.313C173.776 11.7677 174.925 11.5587 175.761 11.1408C176.597 10.7229 177.015 9.97478 177.015 8.89635C177.015 7.87859 176.58 7.15739 175.71 6.73276C174.848 6.30138 173.725 6.0857 172.344 6.0857C171.751 6.0857 171.225 6.09581 170.767 6.11603C170.308 6.13625 169.917 6.16658 169.594 6.20702Z" fill="white"/>
<defs>
<clipPath id="clip0_11341_26152">
<rect width="24.9192" height="26.2307" fill="white" transform="translate(0 0.605469)"/>
</clipPath>
<clipPath id="clip1_11341_26152">
<rect width="24.9189" height="26.2751" fill="white" transform="translate(-0.015625 0.543945)"/>
</clipPath>
</defs>
</svg>
