<svg width="33" height="34" viewBox="0 0 33 34" fill="none" xmlns="http://www.w3.org/2000/svg">
<path d="M13.5526 9.56159L5.9027 1.04722C5.58398 0.692519 5.1944 0.40887 4.75921 0.214668C4.32402 0.020466 3.85295 -0.0799529 3.37653 -0.0800781C2.4748 -0.0800781 1.61001 0.278741 0.97239 0.917442C0.334772 1.55614 -0.0234375 2.42241 -0.0234375 3.32567C-0.0231926 4.16721 0.288077 4.97885 0.850354 5.60412L8.50028 14.1185C8.819 14.4732 9.20859 14.7568 9.64377 14.951C10.079 15.1452 10.55 15.2457 11.0265 15.2458C11.9282 15.2458 12.793 14.887 13.4306 14.2483C14.0682 13.6096 14.4264 12.7433 14.4264 11.84C14.4262 10.9985 14.1149 10.1869 13.5526 9.56159ZM18.7002 9.56159L26.3501 1.04722C26.6688 0.692519 27.0584 0.40887 27.4936 0.214668C27.9288 0.020466 28.3999 -0.0799529 28.8763 -0.0800781C29.778 -0.0800781 30.6428 0.278741 31.2804 0.917442C31.918 1.55614 32.2762 2.42241 32.2762 3.32567C32.276 4.16721 31.9647 4.97885 31.4025 5.60412L23.7525 14.1185C23.4338 14.4732 23.0442 14.7568 22.609 14.951C22.1738 15.1452 21.7028 15.2457 21.2264 15.2458C20.3246 15.2458 19.4598 14.887 18.8222 14.2483C18.1846 13.6096 17.8264 12.7433 17.8264 11.84C17.8266 10.9985 18.1379 10.1869 18.7002 9.56159ZM13.5526 24.3357L5.9027 32.8501C5.58398 33.2048 5.1944 33.4885 4.75921 33.6827C4.32402 33.8769 3.85295 33.9773 3.37653 33.9774C2.4748 33.9774 1.61001 33.6186 0.97239 32.9799C0.334772 32.3412 -0.0234375 31.4749 -0.0234375 30.5717C-0.0231926 29.7301 0.288077 28.9185 0.850354 28.2932L8.50028 19.7788C8.819 19.4241 9.20859 19.1405 9.64377 18.9463C10.079 18.7521 10.55 18.6517 11.0265 18.6515C11.9282 18.6515 12.793 19.0104 13.4306 19.6491C14.0682 20.2878 14.4264 21.154 14.4264 22.0573C14.4262 22.8988 14.1149 23.7105 13.5526 24.3357ZM18.7002 24.3357L26.3501 32.8501C26.6688 33.2048 27.0584 33.4885 27.4936 33.6827C27.9288 33.8769 28.3999 33.9773 28.8763 33.9774C29.778 33.9774 30.6428 33.6186 31.2804 32.9799C31.918 32.3412 32.2762 31.4749 32.2762 30.5717C32.276 29.7301 31.9647 28.9185 31.4025 28.2932L23.7525 19.7788C23.4338 19.4241 23.0442 19.1405 22.609 18.9463C22.1738 18.7521 21.7028 18.6517 21.2264 18.6515C20.3246 18.6515 19.4598 19.0104 18.8222 19.6491C18.1846 20.2878 17.8264 21.154 17.8264 22.0573C17.8266 22.8988 18.1379 23.7105 18.7002 24.3357Z" fill="#333333"/>
</svg>
