<svg width="52" height="50" viewBox="0 0 52 50" fill="none" xmlns="http://www.w3.org/2000/svg">
<path d="M51.7121 28.125H40.7682C40.7062 28.1251 40.646 28.1451 40.5974 28.1818C40.5488 28.2184 40.5148 28.2696 40.5007 28.327C39.2306 33.4314 34.9405 37.5085 29.5643 38.7074C29.5039 38.7208 29.4499 38.7531 29.4113 38.7992C29.3727 38.8454 29.3516 38.9025 29.3516 38.9615V49.353C29.3518 49.4231 29.3813 49.4902 29.4335 49.5398C29.4857 49.5894 29.5564 49.6173 29.6303 49.6176C29.6409 49.6176 29.6521 49.6176 29.667 49.6146C41.2602 48.1439 50.4388 39.4281 51.9876 28.4169C51.9924 28.3797 51.989 28.3418 51.9776 28.3059C51.9663 28.2699 51.9472 28.2365 51.9216 28.2079C51.8943 28.1814 51.8617 28.1603 51.8257 28.1459C51.7898 28.1315 51.7511 28.1241 51.7121 28.124V28.125Z" fill="#F9BF4B"/>
<path d="M26.1899 11.129C33.0415 11.129 38.9282 15.5652 40.4989 21.9174C40.5129 21.9746 40.5471 22.0255 40.5958 22.0616C40.6444 22.0978 40.7046 22.1171 40.7664 22.1164H51.7103C51.714 22.12 51.7214 22.1164 51.7251 22.1164C51.8794 22.1164 52.0001 21.9977 52.0001 21.8548C51.9995 21.8152 51.9908 21.7761 51.9746 21.7397C50.2168 9.55733 39.1484 0.378906 26.1893 0.378906C11.8218 0.378906 0.132812 11.478 0.132812 25.1239C0.132812 37.4567 9.84005 47.9836 22.7109 49.6178C22.7252 49.6178 22.7364 49.6214 22.747 49.6214C22.8148 49.6224 22.8804 49.5989 22.9305 49.5557C22.9599 49.5307 22.9833 49.5 22.9991 49.4656C23.015 49.4313 23.023 49.3942 23.0226 49.3567V38.9647C23.0226 38.9057 23.0016 38.8484 22.963 38.8022C22.9243 38.756 22.8703 38.7235 22.8098 38.7102C16.1194 37.2153 11.4474 31.6297 11.4474 25.1234C11.4511 17.405 18.0644 11.129 26.1899 11.129Z" fill="#F9BF4B"/>
</svg>
