<svg width="144" height="56" viewBox="0 0 144 56" fill="none" xmlns="http://www.w3.org/2000/svg">
<path d="M18.3991 29.5169C18.3991 29.2483 18.4305 28.9201 18.4305 28.5918C18.4305 23.5561 15.3816 19.9453 10.1404 19.9453C4.98554 19.9453 1.41016 23.6755 1.41016 28.3232C1.41016 32.9412 4.98554 36.6713 10.1404 36.6713C13.4722 36.6713 16.2617 35.3583 17.8333 33.3291L15.0359 31.1283C14.0929 32.3444 12.4349 33.1202 10.6433 33.1202C8.03443 33.1202 6.24281 31.6356 5.77134 29.5169H18.3991ZM10.1404 23.2577C13.0635 23.2577 14.0929 25.0109 14.2501 26.861H5.80277C6.21138 24.8617 7.84584 23.2577 10.1404 23.2577Z" fill="#FCFCFC"/>
<path d="M34.5233 20.2443V21.2589C33.0774 20.4532 31.3251 19.916 29.5334 19.916C24.1979 19.916 21.0547 23.967 21.0547 28.2939C21.0547 32.5836 24.1979 36.6719 29.5334 36.6719C31.4194 36.6719 33.1088 36.1347 34.5233 35.2395V36.4332H38.8923V20.2443H34.5233ZM34.5233 31.5765C33.4546 32.4344 31.9851 32.9417 30.3192 32.9417C27.2389 32.9417 25.2587 30.7409 25.2587 28.2939C25.2587 25.8768 27.2075 23.676 30.3192 23.676C31.9537 23.676 33.4546 24.2057 34.5233 25.0711V31.5765Z" fill="#FCFCFC"/>
<path d="M45.8809 20.2437H41.4883V36.4326H45.8809V28.6217C45.8809 26.5029 47.0753 24.3842 50.2185 24.3842C51.13 24.3842 52.3244 24.6229 52.3244 24.6229V20.1244C51.9787 20.005 51.5701 19.9453 51.2557 19.9453C48.8355 19.9752 47.0439 20.9898 45.8809 22.5117V20.2437Z" fill="#FCFCFC"/>
<path d="M67.2515 14.3131C67.0315 14.2534 65.6799 13.7461 63.4797 13.7461C60.5879 13.7461 58.1755 15.1486 58.1755 19.1996V20.244H55.7867V23.6758H58.1755V34.911C58.1755 38.0443 57.5469 38.5218 54.8438 38.5218V41.8267C55.4095 41.9461 56.1953 42.0654 57.1697 42.0654C60.4936 42.0654 62.5367 40.1929 62.5367 36.9701V23.6758H67.1258V20.244H62.5367V20.0053C62.5367 18.3043 62.8825 17.2599 65.4599 17.2599C66.1828 17.2599 66.7486 17.3494 67.2515 17.4091V14.3131Z" fill="#FCFCFC"/>
<path d="M96.17 20.2437H91.7773V36.4326H96.17V28.6217C96.17 26.5029 97.3644 24.3842 100.508 24.3842C101.419 24.3842 102.613 24.6229 102.613 24.6229V20.1244C102.268 20.005 101.859 19.9453 101.545 19.9453C99.1246 19.9752 97.3329 20.9898 96.17 22.5117V20.2437Z" fill="#FCFCFC"/>
<path d="M118.731 20.2437V21.1688C117.317 20.3929 115.564 19.9453 113.773 19.9453C108.995 19.9453 105.137 23.1085 105.137 27.9353C105.137 32.7323 108.995 35.985 113.773 35.985C115.533 35.985 117.167 35.5672 118.542 34.851C118.417 37.3875 115.753 38.8796 113.144 38.8796C110.787 38.8796 109.215 38.4021 107.368 37.9247L106.52 40.9909C109.152 41.7071 109.969 42.0652 114.181 42.0652C120.648 42.0652 123.1 37.5069 123.1 33.3291V20.2437H118.731ZM109.435 27.9652C109.435 25.5182 111.604 23.6755 114.527 23.6755C116.193 23.6755 117.662 24.1455 118.731 24.981V30.9493C117.694 31.7848 116.193 32.2548 114.527 32.2548C111.604 32.2548 109.435 30.5315 109.435 27.9652Z" fill="#FCFCFC"/>
<path d="M142.555 29.5169C142.555 29.2483 142.587 28.9201 142.587 28.5918C142.587 23.5561 139.538 19.9453 134.297 19.9453C129.142 19.9453 125.566 23.6755 125.566 28.3232C125.566 32.9412 129.142 36.6713 134.297 36.6713C137.628 36.6713 140.418 35.3583 141.99 33.3291L139.192 31.1283C138.249 32.3444 136.591 33.1202 134.8 33.1202C132.191 33.1202 130.399 31.6356 129.928 29.5169H142.555ZM134.297 23.2577C137.22 23.2577 138.249 25.0109 138.406 26.861H129.959C130.368 24.8617 132.002 23.2577 134.297 23.2577Z" fill="#FCFCFC"/>
<g clip-path="url(#clip0_11341_17956)">
<path d="M88.6348 29.0424H84.6343C84.6116 29.0424 84.5896 29.0497 84.5718 29.0631C84.5541 29.0765 84.5416 29.0952 84.5365 29.1162C84.0722 30.9821 82.504 32.4725 80.5387 32.9107C80.5166 32.9156 80.4969 32.9274 80.4828 32.9443C80.4687 32.9612 80.461 32.9821 80.4609 33.0036V36.8022C80.461 36.8278 80.4718 36.8524 80.4909 36.8705C80.51 36.8886 80.5358 36.8988 80.5628 36.8989C80.5667 36.8989 80.5708 36.8989 80.5762 36.8978C84.8141 36.3602 88.1693 33.1742 88.7355 29.1491C88.7372 29.1354 88.736 29.1216 88.7318 29.1085C88.7277 29.0953 88.7207 29.0831 88.7114 29.0726C88.7014 29.063 88.6895 29.0553 88.6763 29.05C88.6632 29.0447 88.6491 29.042 88.6348 29.042V29.0424Z" fill="#FCFCFC"/>
<path d="M79.3064 22.8301C81.8109 22.8301 83.9629 24.4517 84.537 26.7738C84.5421 26.7946 84.5546 26.8132 84.5724 26.8265C84.5902 26.8397 84.6122 26.8468 84.6348 26.8465H88.6353C88.6366 26.8478 88.6394 26.8465 88.6407 26.8465C88.6971 26.8465 88.7412 26.8031 88.7412 26.7509C88.741 26.7364 88.7378 26.7221 88.7319 26.7088C88.0893 22.2555 84.0433 18.9004 79.3062 18.9004C74.0541 18.9004 69.7812 22.9576 69.7812 27.9459C69.7812 32.4541 73.3297 36.3022 78.0346 36.8996C78.0399 36.8996 78.044 36.9009 78.0478 36.9009C78.0726 36.9012 78.0966 36.8927 78.1149 36.8769C78.1256 36.8677 78.1342 36.8565 78.14 36.844C78.1458 36.8314 78.1487 36.8178 78.1486 36.8041V33.0054C78.1486 32.9838 78.1409 32.9629 78.1268 32.946C78.1126 32.9291 78.0929 32.9172 78.0708 32.9123C75.6251 32.3659 73.9173 30.324 73.9173 27.9457C73.9186 25.1242 76.3361 22.8301 79.3064 22.8301Z" fill="#FCFCFC"/>
</g>
<defs>
<clipPath id="clip0_11341_17956">
<rect width="18.96" height="18.0005" fill="white" transform="translate(69.7812 18.9004)"/>
</clipPath>
</defs>
</svg>
