<svg width="144" height="32" viewBox="0 0 144 32" fill="none" xmlns="http://www.w3.org/2000/svg">
<path d="M18.3991 17.6116C18.3991 17.3431 18.4305 17.0148 18.4305 16.6865C18.4305 11.6508 15.3816 8.04004 10.1404 8.04004C4.98554 8.04004 1.41016 11.7702 1.41016 16.418C1.41016 21.0359 4.98554 24.7661 10.1404 24.7661C13.4722 24.7661 16.2617 23.4531 17.8333 21.4238L15.0359 19.2231C14.0929 20.4391 12.4349 21.215 10.6433 21.215C8.03443 21.215 6.24281 19.7304 5.77134 17.6116H18.3991ZM10.1404 11.3524C13.0635 11.3524 14.0929 13.1056 14.2501 14.9558H5.80277C6.21138 12.9564 7.84584 11.3524 10.1404 11.3524Z" fill="#F9BF4B"/>
<path d="M34.5233 8.33851V9.35311C33.0774 8.5474 31.3251 8.01025 29.5334 8.01025C24.1979 8.01025 21.0547 12.0612 21.0547 16.3882C21.0547 20.6779 24.1979 24.7661 29.5334 24.7661C31.4194 24.7661 33.1088 24.229 34.5233 23.3337V24.5274H38.8923V8.33851H34.5233ZM34.5233 19.6707C33.4546 20.5287 31.9851 21.036 30.3192 21.036C27.2389 21.036 25.2587 18.8352 25.2587 16.3882C25.2587 13.971 27.2075 11.7703 30.3192 11.7703C31.9537 11.7703 33.4546 12.2999 34.5233 13.1653V19.6707Z" fill="#F9BF4B"/>
<path d="M45.8809 8.33845H41.4883V24.5273H45.8809V16.7164C45.8809 14.5977 47.0753 12.4789 50.2185 12.4789C51.13 12.4789 52.3244 12.7177 52.3244 12.7177V8.21909C51.9787 8.09972 51.5701 8.04004 51.2557 8.04004C48.8355 8.06988 47.0439 9.08448 45.8809 10.6064V8.33845Z" fill="#F9BF4B"/>
<path d="M67.2515 2.40732C67.0315 2.34763 65.6799 1.84033 63.4797 1.84033C60.5879 1.84033 58.1755 3.24287 58.1755 7.29382V8.33827H55.7867V11.77H58.1755V23.0052C58.1755 26.1386 57.5469 26.616 54.8438 26.616V29.921C55.4095 30.0403 56.1953 30.1597 57.1697 30.1597C60.4936 30.1597 62.5367 28.2871 62.5367 25.0643V11.77H67.1258V8.33827H62.5367V8.09954C62.5367 6.39858 62.8825 5.35414 65.4599 5.35414C66.1828 5.35414 66.7486 5.44366 67.2515 5.50335V2.40732Z" fill="#F9BF4B"/>
<path d="M96.17 8.33845H91.7773V24.5273H96.17V16.7164C96.17 14.5977 97.3644 12.4789 100.508 12.4789C101.419 12.4789 102.613 12.7177 102.613 12.7177V8.21909C102.268 8.09972 101.859 8.04004 101.545 8.04004C99.1246 8.06988 97.3329 9.08448 96.17 10.6064V8.33845Z" fill="#F9BF4B"/>
<path d="M118.731 8.33845V9.26353C117.317 8.48766 115.564 8.04004 113.773 8.04004C108.995 8.04004 105.137 11.2032 105.137 16.03C105.137 20.827 108.995 24.0797 113.773 24.0797C115.533 24.0797 117.167 23.6619 118.542 22.9458C118.417 25.4823 115.753 26.9743 113.144 26.9743C110.787 26.9743 109.215 26.4969 107.368 26.0194L106.52 29.0856C109.152 29.8018 109.969 30.1599 114.181 30.1599C120.648 30.1599 123.1 25.6016 123.1 21.4238V8.33845H118.731ZM109.435 16.0599C109.435 13.6129 111.604 11.7702 114.527 11.7702C116.193 11.7702 117.662 12.2402 118.731 13.0758V19.044C117.694 19.8796 116.193 20.3496 114.527 20.3496C111.604 20.3496 109.435 18.6262 109.435 16.0599Z" fill="#F9BF4B"/>
<path d="M142.555 17.6116C142.555 17.3431 142.587 17.0148 142.587 16.6865C142.587 11.6508 139.538 8.04004 134.297 8.04004C129.142 8.04004 125.566 11.7702 125.566 16.418C125.566 21.0359 129.142 24.7661 134.297 24.7661C137.628 24.7661 140.418 23.4531 141.99 21.4238L139.192 19.2231C138.249 20.4391 136.591 21.215 134.8 21.215C132.191 21.215 130.399 19.7304 129.928 17.6116H142.555ZM134.297 11.3524C137.22 11.3524 138.249 13.1056 138.406 14.9558H129.959C130.368 12.9564 132.002 11.3524 134.297 11.3524Z" fill="#F9BF4B"/>
<g clip-path="url(#clip0_11341_18016)">
<path d="M88.6348 17.1361H84.6343C84.6116 17.1361 84.5896 17.1434 84.5718 17.1569C84.5541 17.1703 84.5416 17.189 84.5365 17.21C84.0722 19.0758 82.504 20.5662 80.5387 21.0045C80.5166 21.0094 80.4969 21.0212 80.4828 21.0381C80.4687 21.0549 80.461 21.0758 80.4609 21.0973V24.8959C80.461 24.9216 80.4718 24.9461 80.4909 24.9642C80.51 24.9824 80.5358 24.9926 80.5628 24.9927C80.5667 24.9927 80.5708 24.9927 80.5762 24.9916C84.8141 24.454 88.1693 21.2679 88.7355 17.2428C88.7372 17.2292 88.736 17.2154 88.7318 17.2022C88.7277 17.1891 88.7207 17.1769 88.7114 17.1664C88.7014 17.1567 88.6895 17.149 88.6763 17.1438C88.6632 17.1385 88.6491 17.1358 88.6348 17.1357V17.1361Z" fill="#F9BF4B"/>
<path d="M79.3064 10.9233C81.8109 10.9233 83.9629 12.545 84.537 14.867C84.5421 14.8879 84.5546 14.9065 84.5724 14.9197C84.5902 14.933 84.6122 14.94 84.6348 14.9398H88.6353C88.6366 14.9411 88.6394 14.9398 88.6407 14.9398C88.6971 14.9398 88.7412 14.8964 88.7412 14.8441C88.741 14.8297 88.7378 14.8154 88.7319 14.802C88.0893 10.3488 84.0433 6.99365 79.3062 6.99365C74.0541 6.99365 69.7812 11.0509 69.7812 16.0391C69.7812 20.5474 73.3297 24.3954 78.0346 24.9929C78.0399 24.9929 78.044 24.9941 78.0478 24.9941C78.0726 24.9945 78.0966 24.9859 78.1149 24.9701C78.1256 24.961 78.1342 24.9498 78.14 24.9372C78.1458 24.9247 78.1487 24.9111 78.1486 24.8974V21.0986C78.1486 21.0771 78.1409 21.0561 78.1268 21.0392C78.1126 21.0223 78.0929 21.0105 78.0708 21.0056C75.6251 20.4591 73.9173 18.4173 73.9173 16.0389C73.9186 13.2175 76.3361 10.9233 79.3064 10.9233Z" fill="#F9BF4B"/>
</g>
<defs>
<clipPath id="clip0_11341_18016">
<rect width="18.96" height="18.0005" fill="white" transform="translate(69.7812 6.99365)"/>
</clipPath>
</defs>
</svg>
