<svg xmlns="http://www.w3.org/2000/svg" xmlns:xlink="http://www.w3.org/1999/xlink" width="80px" height="80px" viewBox="0 0 102 102" version="1.1">
    <defs>
        <rect id="path-1" x="0" y="0" width="102" height="102" rx="50"/>
    </defs>
    <g id="player" stroke="none" stroke-width="1" fill-rule="evenodd" class="adjustable bg" style="fill: #d11111">
        <g id="Player-01" transform="translate(-348.000000, -189.000000)">
            <g id="Group">
                <g id="Play-button" transform="translate(348.000000, 189.000000)">
                    <g id="Rectangle" opacity="0.85" fill-rule="evenodd">
                        <use xlink:href="#path-1"/>
                    </g>
                    <g id="Combined-Shape" transform="translate(37.000000, 29.000000)" class="adjustable fg" fill-rule="nonzero" style="fill: #ffffff">
                        <path d="M0.919458003,0.239997315 C0.350546304,0.568471359 -0.000374118201,1.17971461 0,1.84153511 L0,42.265661 C0,43.2835876 0.814185136,44.1081081 1.81875707,44.1081081 C2.82332901,44.1081081 3.63751385,43.2824566 3.63751385,42.265661 L3.63751385,5.08193467 L30.5660894,21.3178634 L10.7624711,34.2387446 C9.91786434,34.7913743 9.67498027,35.9298352 10.2193079,36.784692 C10.763591,37.6408813 11.8879949,37.8874458 12.7335376,37.3355034 L35.0032287,22.8040362 C35.5334174,22.4579792 35.8489365,21.8598373 35.8378378,21.2224006 C35.826142,20.5849639 35.4894464,19.9987159 34.9472325,19.6722154 L2.75053394,0.259224817 C2.1884619,-0.0798170127 1.48911612,-0.0867328574 0.920577928,0.241128345 L0.919458003,0.239997315 Z" id="Path"/>
                    </g>
                </g>
            </g>
        </g>
    </g>
</svg>