<svg width="51" height="44" viewBox="0 0 51 44" fill="none" xmlns="http://www.w3.org/2000/svg">
<path d="M30.1722 43.9604H11.7454C11.1813 43.9604 10.674 43.9604 10.3613 43.3469C10.0486 42.7333 10.2856 42.3173 10.5685 41.8255C13.4539 36.8564 16.3284 31.8828 19.1921 26.9056C19.5454 26.1865 20.2392 25.6965 21.0349 25.6054C22.5938 25.3617 23.7481 24.0254 23.7644 22.4463C23.7274 20.8474 22.6001 19.4822 21.0385 19.1456C19.6175 18.8352 18.0423 19.7394 17.4125 21.1262C16.9889 21.9871 17.0196 23.0022 17.4945 23.8359C17.8225 24.4044 17.7918 25.1109 17.4152 25.6478C16.2347 27.6807 15.0651 29.7245 13.8882 31.761C11.8283 35.3622 9.74762 38.9507 7.70391 42.5285C7.15964 43.4858 6.53066 44.0868 5.30696 43.9875C3.99585 43.9117 2.68203 43.9117 1.37092 43.9875C0.835657 44.0119 0.34275 43.7015 0.131891 43.2088C-0.138442 42.7369 0.04989 42.3372 0.31031 41.8887C1.71694 39.5273 3.10645 37.1578 4.48064 34.7784C5.99721 32.1644 7.49665 29.5431 9.00331 26.9255L16.4825 13.9329C17.2872 12.537 18.0685 11.1276 18.902 9.75426C19.667 8.49371 20.3951 8.51356 21.1367 9.79035C23.2796 13.4718 25.4152 17.156 27.5454 20.842C28.3501 22.2117 29.1143 23.6013 29.9325 24.9584C30.2776 25.4809 30.3289 26.145 30.0676 26.7143C29.4549 28.2429 29.8667 29.6685 31.1625 30.6755C32.224 31.5075 33.8198 31.4912 35.049 30.6358C36.1069 29.8968 36.552 28.4802 36.1726 27.0383C35.8663 25.8562 34.7191 24.833 33.509 24.7834C32.579 24.7437 32.0383 24.3277 31.5869 23.5291C29.7603 20.2979 27.8716 17.0992 26.0126 13.8806C24.6015 11.438 23.2039 8.98548 21.8 6.53567C21.4494 5.97533 21.4575 5.26249 21.8198 4.71027C22.519 3.52191 23.2012 2.31009 23.8932 1.11271C24.7439 -0.362593 25.499 -0.372519 26.3424 1.09285C28.5177 4.86908 30.6912 8.6453 32.8629 12.4215C35.4536 16.9007 38.065 21.3699 40.6557 25.8499C42.0695 28.2925 43.4671 30.745 44.8683 33.1948C45.5108 34.3236 45.1089 35.0464 43.8267 35.05H26.1415C25.5459 35.0744 24.9755 34.8055 24.615 34.3308C23.2372 32.6805 21.2953 32.426 19.7788 33.6478C18.7713 34.4662 18.355 35.8116 18.7236 37.0577C19.2345 38.5591 20.2527 39.2927 21.7297 39.3685C22.7605 39.4687 23.7707 39.0329 24.406 38.2135C25.0656 37.378 25.8991 37.1109 26.9444 37.1172C33.1107 37.1434 39.2788 37.1434 45.4477 37.1172C46.5615 37.0369 47.6041 37.6676 48.052 38.6918C48.6088 39.7944 49.2721 40.8474 49.9308 41.8932C50.2011 42.3227 50.3921 42.7252 50.1317 43.2133C49.9001 43.7186 49.3838 44.0308 48.8296 43.9992C42.6093 43.9532 36.3925 43.9631 30.1722 43.9631V43.9604Z" fill="url(#paint0_linear_11341_16399)"/>
<defs>
<linearGradient id="paint0_linear_11341_16399" x1="25.1277" y1="43.9983" x2="25.1277" y2="-0.00166273" gradientUnits="userSpaceOnUse">
<stop stop-color="#FA709A"/>
<stop offset="1" stop-color="#FFE13F"/>
</linearGradient>
</defs>
</svg>
