<svg width="207" height="45" viewBox="0 0 207 45" fill="none" xmlns="http://www.w3.org/2000/svg">
<path d="M30.1722 44.1733H11.7454C11.1813 44.1733 10.674 44.1733 10.3613 43.5597C10.0486 42.9462 10.2856 42.5302 10.5685 42.0384C13.4539 37.0693 16.3284 32.0957 19.1921 27.1185C19.5454 26.3994 20.2392 25.9094 21.0349 25.8183C22.5938 25.5746 23.7481 24.2383 23.7644 22.6592C23.7274 21.0603 22.6001 19.6951 21.0385 19.3585C19.6175 19.0481 18.0423 19.9523 17.4125 21.3391C16.9889 22.1999 17.0196 23.2151 17.4945 24.0488C17.8225 24.6173 17.7918 25.3238 17.4152 25.8607C16.2347 27.8936 15.0651 29.9374 13.8882 31.9739C11.8283 35.5751 9.74762 39.1636 7.70391 42.7413C7.15964 43.6987 6.53066 44.2997 5.30696 44.2004C3.99585 44.1246 2.68203 44.1246 1.37092 44.2004C0.835657 44.2248 0.34275 43.9144 0.131891 43.4217C-0.138442 42.9498 0.04989 42.55 0.31031 42.1016C1.71694 39.7402 3.10645 37.3707 4.48064 34.9913C5.99721 32.3773 7.49665 29.756 9.00331 27.1384L16.4825 14.1458C17.2872 12.7499 18.0685 11.3405 18.902 9.96715C19.667 8.7066 20.3951 8.72645 21.1367 10.0032C23.2796 13.6847 25.4152 17.3689 27.5454 21.0549C28.3501 22.4246 29.1143 23.8142 29.9325 25.1713C30.2776 25.6937 30.3289 26.3579 30.0676 26.9272C29.4549 28.4558 29.8667 29.8814 31.1625 30.8884C32.224 31.7204 33.8198 31.7041 35.049 30.8487C36.1069 30.1097 36.552 28.6931 36.1726 27.2512C35.8663 26.0691 34.7191 25.0459 33.509 24.9962C32.579 24.9565 32.0383 24.5406 31.5869 23.742C29.7603 20.5108 27.8716 17.3121 26.0126 14.0935C24.6015 11.6509 23.2039 9.19837 21.8 6.74856C21.4494 6.18822 21.4575 5.47538 21.8198 4.92316C22.519 3.7348 23.2012 2.52298 23.8932 1.3256C24.7439 -0.149702 25.499 -0.159628 26.3424 1.30575C28.5177 5.08197 30.6912 8.85819 32.8629 12.6344C35.4536 17.1136 38.065 21.5828 40.6557 26.0628C42.0695 28.5054 43.4671 30.9579 44.8683 33.4077C45.5108 34.5365 45.1089 35.2593 43.8267 35.2629H26.1415C25.5459 35.2872 24.9755 35.0184 24.615 34.5437C23.2372 32.8934 21.2953 32.6389 19.7788 33.8607C18.7713 34.6791 18.355 36.0244 18.7236 37.2706C19.2345 38.772 20.2527 39.5056 21.7297 39.5814C22.7605 39.6816 23.7707 39.2457 24.406 38.4264C25.0656 37.5909 25.8991 37.3238 26.9444 37.3301C33.1107 37.3563 39.2788 37.3563 45.4477 37.3301C46.5615 37.2498 47.6041 37.8805 48.052 38.9047C48.6088 40.0073 49.2721 41.0603 49.9308 42.1061C50.2011 42.5356 50.3921 42.938 50.1317 43.4262C49.9001 43.9315 49.3838 44.2437 48.8296 44.2121C42.6093 44.1661 36.3925 44.176 30.1722 44.176V44.1733Z" fill="#FEFFFF"/>
<path d="M62.4602 13.8198C62.4602 12.8471 61.706 11.8401 60.4084 11.8401C59.1108 11.8401 58.3566 12.8462 58.3566 13.8198C58.3566 14.7934 59.1108 15.8076 60.4084 15.8076C61.706 15.8076 62.4602 14.8016 62.4602 13.8198ZM56.1191 34.234V34.5615H65.123V34.234L64.0426 34.0156C63.146 33.8397 62.535 33.0844 62.535 32.1451V17.9705H56.1191V18.2981L57.1996 18.5074C58.1043 18.6915 58.7152 19.4467 58.7152 20.386V32.1451C58.7152 33.0844 58.1034 33.8397 57.1996 34.0156L56.1191 34.234ZM84.1454 34.0165C83.2407 33.8406 82.6298 33.0853 82.6298 32.146V22.8358C82.6298 19.5902 79.9661 17.4264 76.3977 17.4264C74.563 17.4264 72.6536 18.3323 71.6065 19.666V17.9714H65.1987V18.299L66.2791 18.5083C67.1757 18.6924 67.7867 19.4476 67.7867 20.3869V32.146C67.7867 33.0853 67.1748 33.8406 66.2791 34.0165L65.1987 34.2349V34.5624H73.9854V34.2349L73.0807 34.0165C72.2183 33.8072 71.6065 33.0853 71.6065 32.1794V22.1149C71.6065 20.3869 73.9521 18.5083 75.7525 18.5083C77.5529 18.5083 78.81 19.8501 78.81 22.8358V32.1794C78.81 33.0853 78.1981 33.8063 77.3357 34.0165L76.431 34.2349V34.5624H85.2258V34.2349L84.1454 34.0165ZM85.0754 30.594C85.0754 33.8063 89.6908 35.1065 92.8898 35.1065C94.9083 35.1065 97.0358 34.4857 98.1919 33.6222C99.4481 32.7244 100.135 31.5676 100.135 30.4099C100.135 29.3696 99.8833 28.6071 99.2723 27.8852C98.3676 26.7023 96.8177 25.6538 94.5478 24.7488C93.4674 24.3211 92.6384 23.9935 91.8508 23.6001C89.9747 22.7366 89.1114 21.9055 89.1114 20.857C89.1114 19.3808 90.9118 18.1483 92.7465 18.1483C94.5469 18.1149 96.3482 18.8358 96.3482 20.1695C96.3482 21.033 95.594 21.7549 94.7983 21.7964C94.6893 22.4758 95.5607 23.5577 96.5321 23.7418C98.3325 24.0693 99.2714 22.6599 99.2714 21.6114C99.2714 19.4891 96.8925 17.4264 92.3194 17.4264C90.519 17.4264 88.6086 17.9714 87.6706 18.6933C86.5901 19.49 85.9449 20.5304 85.9449 21.5789C85.9449 22.5516 86.1963 23.2735 86.8073 23.961C87.6697 25.0429 89.2196 26.0499 91.448 26.955C92.3194 27.3493 93.1484 27.6759 94.045 28.1036C95.8797 29.0429 96.7501 29.9822 96.7501 31.1318C96.7501 33.0104 94.5469 34.1681 92.2437 34.1681C89.9405 34.1681 88.3905 33.1196 88.3905 31.8952C88.3905 30.9225 89.4376 30.1257 90.3 29.9498C90.3333 29.1864 90.0071 27.6353 87.8454 27.6353C85.944 27.6353 85.0727 29.4048 85.0727 30.5958L85.0754 30.594ZM107.045 17.9714V11.6976H105.495C105.495 15.3375 102.798 17.9714 99.5571 17.9714V19.0533H103.235V30.234C103.235 33.1196 105.713 35.1074 109.458 35.1074C112.238 35.1074 114.182 33.4048 114.399 30.7709H113.026C112.808 33.0104 111.836 34.0165 109.894 34.0165C108.201 34.0165 107.046 32.3644 107.046 29.8397V19.0533H112.021V17.9714H107.046H107.045ZM131.47 34.0165C130.565 33.8406 129.954 33.0853 129.954 32.146V22.8358C129.954 19.5568 127.291 17.4264 123.078 17.4264C119.903 17.4264 116.411 18.8692 116.411 21.3939C116.411 22.6942 117.173 24.3545 119.367 24.3545C120.59 24.3545 121.67 23.4151 121.67 22.5173C120.774 22.3332 120.229 21.393 120.229 20.6721C120.229 19.0533 121.419 18.3323 123.077 18.3323C125.565 18.3323 126.134 19.8085 126.134 22.8367V25.0005C122.86 25.0005 119.727 25.6213 117.708 26.77C115.908 27.8185 114.902 29.1855 114.902 30.5949C114.902 33.4463 117.314 35.1074 121.343 35.1074C122.248 35.1074 123.044 34.9568 123.655 34.6716C124.694 34.2015 125.523 33.6231 126.133 32.8688V34.5633H132.549V34.2358L131.469 34.0174L131.47 34.0165ZM126.134 31.0307C125.925 31.5676 125.598 32.0711 125.163 32.5069C124.375 33.2956 123.546 33.9831 122.39 33.9831C120.949 33.9831 119.802 32.6495 119.802 30.8801C119.802 27.7851 121.996 26.1248 126.134 26.1248V31.0316V31.0307ZM132.408 34.234V34.5615H141.412V34.234L140.331 34.0156C139.427 33.8397 138.816 33.0844 138.816 32.1451V9.31543H132.408V9.64297L133.488 9.85231C134.385 10.0364 134.996 10.7916 134.996 11.7309V32.146C134.996 33.0853 134.384 33.8406 133.488 34.0165L132.408 34.2349V34.234ZM154.773 27.4242C153.55 27.4242 152.469 28.3554 152.469 29.2613C153.366 29.4372 153.91 30.3766 153.91 31.0984C153.91 32.7253 152.36 34.2015 150.702 34.1681C147.243 34.0923 145.735 29.1187 146.238 24.4636H157.689C157.404 22.5516 156.684 20.9328 155.46 19.666C154.087 18.2566 152.034 17.4264 149.873 17.4264C147.712 17.4264 145.66 18.2566 144.329 19.666C142.745 21.3263 141.916 23.5243 141.916 26.2665C141.916 29.0086 142.779 31.0975 144.504 32.7587C146.02 34.3107 148.324 35.1408 150.702 35.065C154.337 35.1408 157.73 33.0104 157.73 30.3766C157.73 29.0763 156.968 27.4242 154.773 27.4242H154.773ZM149.697 18.2232C150.559 18.2232 151.246 18.6933 151.857 19.6326C152.394 20.4627 152.754 21.7549 152.938 23.4909H146.38C146.707 21.218 147.645 18.2241 149.697 18.2241V18.2232ZM166.766 35.1065H167.771L172.956 21.9046C173.643 20.1686 175.05 18.8683 176.817 18.2981H176.851V17.9705H170.008V18.2981L170.728 18.5074C171.917 18.9098 172.495 20.1009 172.026 21.2505L168.491 30.1997L164.353 21.292C163.741 19.9502 164.312 18.5832 165.609 18.2981V17.9705H156.605V18.2981C158.298 18.659 159.704 19.8501 160.533 21.6529L166.765 35.1065H166.766ZM188.486 27.4242C187.263 27.4242 186.182 28.3554 186.182 29.2613C187.079 29.4372 187.623 30.3766 187.623 31.0984C187.623 32.7253 186.073 34.2015 184.415 34.1681C180.956 34.0923 179.44 29.1187 179.951 24.4636H191.402C191.117 22.5516 190.397 20.9328 189.165 19.666C187.8 18.2566 185.748 17.4264 183.586 17.4264C181.425 17.4264 179.373 18.2566 178.042 19.666C176.459 21.3263 175.63 23.5243 175.63 26.2665C175.63 29.0086 176.492 31.0975 178.218 32.7587C179.733 34.3107 182.037 35.1408 184.415 35.065C188.05 35.1408 191.434 33.0104 191.434 30.3766C191.434 29.0763 190.68 27.4242 188.486 27.4242ZM183.402 18.2232C184.273 18.2232 184.952 18.6933 185.563 19.6326C186.107 20.4627 186.467 21.7549 186.643 23.4909H180.093C180.42 21.218 181.349 18.2241 183.402 18.2241V18.2232ZM205.522 18.3323C203.361 16.8146 200.153 18.5841 198.679 21.7964V17.9714H192.263V18.299L193.344 18.5083C194.248 18.6924 194.859 19.4476 194.859 20.3869V32.146C194.859 33.0853 194.247 33.8406 193.344 34.0165L192.263 34.2349V34.5624H201.267V34.2349L200.187 34.0165C199.29 33.8406 198.679 33.0853 198.679 32.146V23.1968C199.759 20.7813 200.949 19.9511 202.456 20.857C203.361 21.3939 203.788 22.4424 203.428 23.306C204.148 23.8176 205.773 23.4566 206.452 22.4424C207.683 20.6053 206.602 19.0876 205.522 18.3323Z" fill="#FEFFFF"/>
</svg>
