<svg width="51" height="44" viewBox="0 0 51 44" fill="none" xmlns="http://www.w3.org/2000/svg">
<path d="M30.1722 43.9624H11.7454C11.1813 43.9624 10.674 43.9624 10.3613 43.3488C10.0486 42.7352 10.2856 42.3193 10.5685 41.8275C13.4539 36.8584 16.3284 31.8848 19.1921 26.9076C19.5454 26.1884 20.2392 25.6985 21.0349 25.6073C22.5938 25.3637 23.7481 24.0274 23.7644 22.4483C23.7274 20.8494 22.6001 19.4842 21.0385 19.1476C19.6175 18.8372 18.0423 19.7413 17.4125 21.1282C16.9889 21.989 17.0196 23.0041 17.4945 23.8379C17.8225 24.4063 17.7918 25.1129 17.4152 25.6497C16.2347 27.6827 15.0651 29.7264 13.8882 31.763C11.8283 35.3642 9.74762 38.9527 7.70391 42.5304C7.15964 43.4878 6.53066 44.0887 5.30696 43.9895C3.99585 43.9137 2.68203 43.9137 1.37092 43.9895C0.835657 44.0138 0.34275 43.7034 0.131891 43.2108C-0.138442 42.7388 0.04989 42.3391 0.31031 41.8907C1.71694 39.5293 3.10645 37.1598 4.48064 34.7803C5.99721 32.1663 7.49665 29.5451 9.00331 26.9274L16.4825 13.9349C17.2872 12.539 18.0685 11.1295 18.902 9.75621C19.667 8.49567 20.3951 8.51552 21.1367 9.7923C23.2796 13.4738 25.4152 17.158 27.5454 20.844C28.3501 22.2137 29.1143 23.6033 29.9325 24.9604C30.2776 25.4828 30.3289 26.1469 30.0676 26.7163C29.4549 28.2448 29.8667 29.6705 31.1625 30.6775C32.224 31.5094 33.8198 31.4932 35.049 30.6378C36.1069 29.8988 36.552 28.4821 36.1726 27.0402C35.8663 25.8582 34.7191 24.8349 33.509 24.7853C32.579 24.7456 32.0383 24.3296 31.5869 23.5311C29.7603 20.2999 27.8716 17.1011 26.0126 13.8825C24.6015 11.4399 23.2039 8.98743 21.8 6.53762C21.4494 5.97728 21.4575 5.26444 21.8198 4.71222C22.519 3.52386 23.2012 2.31204 23.8932 1.11466C24.7439 -0.36064 25.499 -0.370565 26.3424 1.09481C28.5177 4.87103 30.6912 8.64726 32.8629 12.4235C35.4536 16.9026 38.065 21.3718 40.6557 25.8519C42.0695 28.2944 43.4671 30.747 44.8683 33.1968C45.5108 34.3256 45.1089 35.0483 43.8267 35.0519H26.1415C25.5459 35.0763 24.9755 34.8074 24.615 34.3328C23.2372 32.6824 21.2953 32.428 19.7788 33.6497C18.7713 34.4681 18.355 35.8135 18.7236 37.0596C19.2345 38.5611 20.2527 39.2947 21.7297 39.3705C22.7605 39.4706 23.7707 39.0348 24.406 38.2155C25.0656 37.3799 25.8991 37.1129 26.9444 37.1192C33.1107 37.1453 39.2788 37.1453 45.4477 37.1192C46.5615 37.0389 47.6041 37.6696 48.052 38.6937C48.6088 39.7964 49.2721 40.8494 49.9308 41.8952C50.2011 42.3247 50.3921 42.7271 50.1317 43.2153C49.9001 43.7206 49.3838 44.0328 48.8296 44.0012C42.6093 43.9552 36.3925 43.9651 30.1722 43.9651V43.9624Z" fill="url(#paint0_linear_11341_15494)"/>
<defs>
<linearGradient id="paint0_linear_11341_15494" x1="25.1277" y1="44.0003" x2="25.1277" y2="0.000290394" gradientUnits="userSpaceOnUse">
<stop stop-color="#FA709A"/>
<stop offset="1" stop-color="#FFE13F"/>
</linearGradient>
</defs>
</svg>
